<?xml version="1.0" encoding="UTF-8"?>
<svg id="Layer_2" data-name="Layer 2" xmlns="http://www.w3.org/2000/svg" viewBox="0 0 556.1 310.56">
  <defs>
    <style>
      .cls-1 {
        font-family: NotoSansSymbols-Bold, 'Noto Sans Symbols';
        font-size: 117.72px;
        font-variation-settings: 'wght' 700;
        font-weight: 700;
        stroke: #000;
        stroke-miterlimit: 10;
        stroke-width: 5px;
      }
    </style>
  </defs>
  <g id="Layer_1-2" data-name="Layer 1">
    <g>
      <text class="cls-1" transform="translate(192.86 241.55)"><tspan x="0" y="0">Okani</tspan></text>
      <path d="M34.64,0c2.88.67,5.85,1.12,8.63,2.13,19.11,6.95,25.11,28.21,13.15,44.3l19.59,34.58c.74.46,12.97-3.18,15.19-3.57,16.08-2.86,32.5-1.43,47.64,4.59l26.33-38.54c.53-1.88-1.26-3.38-1.84-5.05-5.56-16,2.53-31.09,18.49-36.55,2.66-.91,5.22-1.28,7.94-1.87h6.24c2.02.6,4.06.73,6.13,1.29,9.32,2.53,18.37,10.08,21.11,19.35.49,1.66.4,3.35,1.1,4.81v5.18c-.86.97-.37,2.51-.69,3.8-2.95,11.99-14.92,21.76-27.39,22.61-2.24.15-8.78-.56-10.14.42l-25.11,36.21c-.2.78,2.29,3.58,3.05,4.37,4.09,4.29,7.91,7.05,11.69,12.09,39.53,52.79,9.91,130.95-56.97,140.48l-10.19,1.08h-11.53l-2.88-.47-.03-85.5c.35-1.26,16.12.03,18.54-.26.75-.09,1.8-2.11,4.06-.98v62.22c24.58-1.77,44.01-19.84,51.25-42.32,9.84-30.58-3.8-65.87-33.39-80.08-42.42-20.38-89.75,10.68-91.33,55.47l-22.57-.94c.92-16.04,6.09-31.51,14.98-44.93,5.16-7.78,12-13.71,18.53-20.35l-20.17-35.48c-1.26-1.16-7.58-1.25-9.61-1.65-9.77-1.96-18.73-8.41-22.34-17.67-.92-2.36-1.42-4.76-2.03-7.19.15-1.98-.2-4.19,0-6.13C1.49,12,14.54,1.24,27.92,0h6.72ZM29.72,18.51c-7.52,1.01-13.08,9.9-7.56,16.13,4.04,4.57,12.87,5.07,17.45,1.1,8.09-7.01.09-18.58-9.88-17.24ZM185.62,35.63c8.21,6.29,22.49.53,18.77-10.17-2.49-7.17-11.9-9.14-17.96-4.93-5.27,3.66-6.05,11.08-.81,15.1Z"/>
    </g>
  </g>
</svg>