<?xml version="1.0" encoding="utf-8"?>
<!-- Generator: Adobe Illustrator 15.0.2, SVG Export Plug-In . SVG Version: 6.00 Build 0)  -->
<!DOCTYPE svg PUBLIC "-//W3C//DTD SVG 1.1//EN" "http://www.w3.org/Graphics/SVG/1.1/DTD/svg11.dtd">
<svg version="1.1" id="layer_1" xmlns="http://www.w3.org/2000/svg" xmlns:xlink="http://www.w3.org/1999/xlink" x="0px" y="0px"
	 width="1159px" height="771px" viewBox="0 0 1159 771" style="enable-background:new 0 0 1159 771;" xml:space="preserve">
<style type="text/css">
<![CDATA[
	.st0{fill:#E6A19B;}
	.st1{fill:#E6C258;}
	.st2{opacity:0.28;fill:#FFFFFF;}
	.st3{fill:#EDE3DD;}
	.st4{fill:#8C843D;}
	.st5{fill:#BCB469;}
	.st6{fill:#F2CD5D;}
	.st7{fill:#F2D680;}
	.st8{fill:#F4BF62;}
	.st9{fill:#F7DEDD;}
	.st10{fill:#F9D77F;}
	.st11{clip-path:url(#SVGID_2_);}
	.st12{clip-path:url(#SVGID_6_);}
	.st13{clip-path:url(#SVGID_8_);}
	.st14{fill:#904823;}
	.st15{fill:#C1DEFE;}
	.st16{fill:url(#SVGID_4_);}
	.st17{fill:#FF8376;}
	.st18{fill:#FFF2CC;}
	.st19{fill:#FFFFFF;}
	.st20{fill:#6987D0;}
	.st21{fill:#312113;}
	.st22{clip-path:url(#SVGID_2_);fill:#FFF2CC;}
	.st23{clip-path:url(#SVGID_2_);fill:#FFFFFF;}
	.st24{opacity:0.21;fill:#FFFFFF;}
	.st25{opacity:0.22;fill:url(#SVGID_3_);}
	.st26{fill:#3B343F;}
	.st27{opacity:0.31;fill:#FFFFFF;}
	.st28{fill:url(#SVGID_11_);}
	.st29{fill:url(#SVGID_12_);}
	.st30{fill:url(#SVGID_13_);}
	.st31{fill:url(#SVGID_14_);}
	.st32{fill:url(#SVGID_15_);}
	.st33{fill:url(#SVGID_16_);}
	.st34{fill:url(#SVGID_17_);}
	.st35{opacity:0.29;fill:#FFFFFF;}
	.st36{clip-path:url(#SVGID_10_);}
	.st37{fill:#DBCAC2;}
]]>
</style>
<rect class="st19" width="1159" height="771"/>
<path class="st6" d="M106.3,485.2c-36.5-126.3-8.9-353.2,180.2-360c180.2-6.5,183.9,93.1,369.4,66.2
	c185.6-26.9,283.9-19.1,348.2,52.3c80.8,89.7,106.9,443.5-191.7,408.3c-298.6-35.2-436.7,15.5-534.5-9.2
	C180,618,129.6,565.7,106.3,485.2z"/>
<g>
	<defs>
		<path id="SVGID_1_" d="M105.4,485.7c-36.5-126.3-8.9-353.2,180.2-360c180.2-6.5,183.9,93.1,369.4,66.2
			c185.6-26.9,283.9-19.1,348.2,52.3c80.8,89.7,106.9,443.5-191.7,408.3c-298.6-35.2-436.7,15.5-534.5-9.2
			C179,618.5,128.6,566.2,105.4,485.7z"/>
	</defs>
	<clipPath id="SVGID_2_">
		<use xlink:href="#SVGID_1_"  style="overflow:visible;"/>
	</clipPath>
	<g class="st11">
		<g>
			<g>
				<rect x="1121.2" y="374.8" class="st7" width="107.2" height="254.5"/>
				<rect x="1121.2" y="374.8" class="st1" width="11.1" height="254.5"/>
				<rect x="1144" y="411.6" class="st18" width="16.7" height="6.8"/>
				<rect x="1144" y="436.3" class="st18" width="16.7" height="6.8"/>
				<rect x="1144" y="485.7" class="st18" width="16.7" height="6.8"/>
				<rect x="1144" y="533.2" class="st18" width="16.7" height="6.8"/>
				<rect x="1144" y="557.9" class="st18" width="16.7" height="6.8"/>
				<rect x="1144" y="570.2" class="st18" width="16.7" height="6.8"/>
				<rect x="1144" y="607.2" class="st18" width="16.7" height="6.8"/>
			</g>
		</g>
		<g>
			<g>
				<polygon class="st7" points="205.9,257.3 205.9,238.8 237.4,238.8 237.4,150.2 246.1,150.2 246.1,238.8 280,238.8 280,257.3 
					298.2,257.3 298.2,628.8 167.1,628.8 167.1,257.3 				"/>
				<rect x="167.1" y="257.3" class="st1" width="18.2" height="334.1"/>
			</g>
			<g>
				<polygon class="st7" points="972.4,356.1 972.4,341.8 996.7,341.8 996.7,273.5 1003.4,273.5 1003.4,341.8 1029.5,341.8 
					1029.5,356.1 1043.5,356.1 1043.5,642.3 942.6,642.3 942.6,356.1 				"/>
				<rect x="942.6" y="356.1" class="st1" width="14" height="257.4"/>
			</g>
			<g>
				<rect x="232.7" y="345.8" class="st7" width="131.1" height="283"/>
				<rect x="232.7" y="345.8" class="st1" width="18.2" height="283"/>
			</g>
			<g>
				<rect x="655.7" y="359.3" class="st7" width="131.1" height="283"/>
				<rect x="655.7" y="359.3" class="st1" width="18.2" height="283"/>
			</g>
			<g>
				<rect x="360.1" y="211.2" class="st7" width="175.9" height="417.6"/>
				<rect x="360.1" y="211.2" class="st1" width="18.2" height="417.6"/>
				<rect x="490" y="231.2" class="st18" width="27.5" height="11.1"/>
				<rect x="443.7" y="231.2" class="st18" width="27.5" height="11.1"/>
				<rect x="490" y="271.7" class="st18" width="27.5" height="11.1"/>
				<rect x="443.7" y="271.7" class="st18" width="27.5" height="11.1"/>
				<rect x="397.5" y="271.7" class="st18" width="27.5" height="11.1"/>
				<rect x="490" y="312.2" class="st18" width="27.5" height="11.1"/>
				<rect x="397.5" y="312.2" class="st18" width="27.5" height="11.1"/>
				<rect x="443.7" y="332.5" class="st18" width="27.5" height="11.1"/>
				<rect x="490" y="352.7" class="st18" width="27.5" height="11.1"/>
				<rect x="443.7" y="373" class="st18" width="27.5" height="11.1"/>
				<rect x="490" y="393.2" class="st18" width="27.5" height="11.1"/>
				<rect x="397.5" y="393.2" class="st18" width="27.5" height="11.1"/>
				<rect x="490" y="430.7" class="st18" width="27.5" height="11.1"/>
				<rect x="443.7" y="430.7" class="st18" width="27.5" height="11.1"/>
				<rect x="490" y="471.2" class="st18" width="27.5" height="11.1"/>
				<rect x="443.7" y="471.2" class="st18" width="27.5" height="11.1"/>
				<rect x="397.5" y="471.2" class="st18" width="27.5" height="11.1"/>
				<rect x="490" y="511.7" class="st18" width="27.5" height="11.1"/>
				<rect x="397.5" y="511.7" class="st18" width="27.5" height="11.1"/>
				<rect x="443.7" y="531.9" class="st18" width="27.5" height="11.1"/>
				<rect x="397.5" y="531.9" class="st18" width="27.5" height="11.1"/>
				<rect x="490" y="552.2" class="st18" width="27.5" height="11.1"/>
				<rect x="443.7" y="572.4" class="st18" width="27.5" height="11.1"/>
				<rect x="490" y="592.7" class="st18" width="27.5" height="11.1"/>
				<rect x="397.5" y="592.7" class="st18" width="27.5" height="11.1"/>
			</g>
			<g>
				<rect x="746" y="255.8" class="st7" width="172.4" height="386.4"/>
				<rect x="746" y="255.8" class="st1" width="17.8" height="386.4"/>
				<rect x="873.2" y="274.3" class="st18" width="26.9" height="10.3"/>
				<rect x="827.9" y="274.3" class="st18" width="26.9" height="10.3"/>
				<rect x="873.2" y="311.8" class="st18" width="26.9" height="10.3"/>
				<rect x="827.9" y="311.8" class="st18" width="26.9" height="10.3"/>
				<rect x="782.6" y="311.8" class="st18" width="26.9" height="10.3"/>
				<rect x="873.2" y="349.3" class="st18" width="26.9" height="10.3"/>
				<rect x="782.6" y="349.3" class="st18" width="26.9" height="10.3"/>
				<rect x="827.9" y="368.1" class="st18" width="26.9" height="10.3"/>
				<rect x="873.2" y="386.8" class="st18" width="26.9" height="10.3"/>
				<rect x="827.9" y="405.5" class="st18" width="26.9" height="10.3"/>
				<rect x="873.2" y="424.3" class="st18" width="26.9" height="10.3"/>
				<rect x="782.6" y="424.3" class="st18" width="26.9" height="10.3"/>
				<rect x="873.2" y="458.9" class="st18" width="26.9" height="10.3"/>
				<rect x="827.9" y="458.9" class="st18" width="26.9" height="10.3"/>
				<rect x="873.2" y="496.4" class="st18" width="26.9" height="10.3"/>
				<rect x="827.9" y="496.4" class="st18" width="26.9" height="10.3"/>
				<rect x="782.6" y="496.4" class="st18" width="26.9" height="10.3"/>
				<rect x="873.2" y="533.9" class="st18" width="26.9" height="10.3"/>
				<rect x="782.6" y="533.9" class="st18" width="26.9" height="10.3"/>
				<rect x="827.9" y="552.7" class="st18" width="26.9" height="10.3"/>
				<rect x="782.6" y="552.7" class="st18" width="26.9" height="10.3"/>
				<rect x="873.2" y="571.4" class="st18" width="26.9" height="10.3"/>
				<rect x="827.9" y="590.1" class="st18" width="26.9" height="10.3"/>
				<rect x="873.2" y="608.9" class="st18" width="26.9" height="10.3"/>
				<rect x="782.6" y="608.9" class="st18" width="26.9" height="10.3"/>
			</g>
			<g>
				<rect x="79.6" y="365.2" class="st7" width="111" height="263.6"/>
				<rect x="79.6" y="365.2" class="st1" width="11.5" height="263.6"/>
				<rect x="161.5" y="377.8" class="st18" width="17.3" height="7"/>
				<rect x="132.3" y="377.8" class="st18" width="17.3" height="7"/>
				<rect x="161.5" y="403.4" class="st18" width="17.3" height="7"/>
				<rect x="132.3" y="403.4" class="st18" width="17.3" height="7"/>
				<rect x="103.2" y="403.4" class="st18" width="17.3" height="7"/>
				<rect x="161.5" y="428.9" class="st18" width="17.3" height="7"/>
				<rect x="103.2" y="428.9" class="st18" width="17.3" height="7"/>
				<rect x="132.3" y="441.7" class="st18" width="17.3" height="7"/>
				<rect x="161.5" y="454.5" class="st18" width="17.3" height="7"/>
				<rect x="132.3" y="467.3" class="st18" width="17.3" height="7"/>
				<rect x="161.5" y="480.1" class="st18" width="17.3" height="7"/>
				<rect x="103.2" y="480.1" class="st18" width="17.3" height="7"/>
				<rect x="161.5" y="503.7" class="st18" width="17.3" height="7"/>
				<rect x="132.3" y="503.7" class="st18" width="17.3" height="7"/>
				<rect x="161.5" y="529.3" class="st18" width="17.3" height="7"/>
				<rect x="132.3" y="529.3" class="st18" width="17.3" height="7"/>
				<rect x="103.2" y="529.3" class="st18" width="17.3" height="7"/>
				<rect x="161.5" y="554.9" class="st18" width="17.3" height="7"/>
				<rect x="103.2" y="554.9" class="st18" width="17.3" height="7"/>
				<rect x="132.3" y="567.6" class="st18" width="17.3" height="7"/>
				<rect x="103.2" y="567.6" class="st18" width="17.3" height="7"/>
				<rect x="161.5" y="580.4" class="st18" width="17.3" height="7"/>
				<rect x="132.3" y="593.2" class="st18" width="17.3" height="7"/>
				<rect x="161.5" y="606" class="st18" width="17.3" height="7"/>
				<rect x="103.2" y="606" class="st18" width="17.3" height="7"/>
			</g>
		</g>
	</g>
	<path class="st23" d="M498.8,268.1H554c-1.3-4-5.8-6-9.7-4.5c-2-2.9-4.6-5.9-8.1-6.8c-2.8-0.7-4.9,0.4-7.3-2.1
		c-1.3-1.4-2.2-2.7-4-3.6c-6.8-3.4-13.7,1.4-15.5,8c-1.5-1.7-4.1-2.2-6.4-1.2c-3.7,1.6-4.4,6-4.2,9.6
		C498.8,267.7,498.7,267.9,498.8,268.1z"/>
	<path class="st22" d="M642.5,278.4h84.9c-2-6.1-8.9-9.3-14.9-6.9c-3.1-4.4-7-9.2-12.5-10.5c-4.2-1-7.5,0.6-11.2-3.2
		c-2-2.1-3.3-4.2-6.1-5.6c-10.5-5.2-21,2.1-23.9,12.3c-2.3-2.6-6.3-3.4-9.8-1.9c-5.7,2.4-6.8,9.3-6.5,14.8
		C642.4,277.7,642.4,278.1,642.5,278.4z"/>
	<g class="st11">
		<g>
			<g>
				<rect x="74.9" y="87.9" class="st19" width="11.1" height="574.9"/>
				<rect x="581.5" y="87.9" class="st19" width="11.1" height="574.9"/>
				<polygon class="st35" points="254.8,645.4 215.5,645.4 426.3,100.7 465.6,100.7 				"/>
				<polygon class="st35" points="185.4,645.4 165.8,645.4 376.5,100.7 396.2,100.7 				"/>
				<polygon class="st27" points="420.2,645.4 400.5,645.4 581.2,159.2 581.2,198.4 				"/>
				<rect x="243.8" y="90.8" class="st19" width="11.1" height="569.1"/>
				<rect x="74.9" y="649.1" class="st19" width="517.7" height="14.9"/>
				<rect x="412.6" y="90.8" class="st19" width="11.1" height="569.1"/>
				<rect x="86" y="645.4" class="st19" width="495.4" height="4.5"/>
				<rect x="74.9" y="87.9" class="st19" width="517.7" height="12.8"/>
				<rect x="85.9" y="100.7" class="st19" width="495.6" height="4.5"/>
			</g>
		</g>
		<g>
			<g>
				<rect x="581.5" y="87.9" class="st19" width="11.1" height="574.9"/>
				<rect x="1088.1" y="87.9" class="st19" width="11.1" height="574.9"/>
				<polygon class="st2" points="761.5,645.4 722.2,645.4 932.9,100.7 972.2,100.7 				"/>
				<polygon class="st2" points="692,645.4 672.4,645.4 883.1,100.7 902.8,100.7 				"/>
				<polygon class="st2" points="926.8,645.4 907.1,645.4 1087.8,159.2 1087.8,198.4 				"/>
				<rect x="750.4" y="90.8" class="st19" width="11.1" height="569.1"/>
				<rect x="581.5" y="649.1" class="st19" width="517.7" height="14.9"/>
				<rect x="919.2" y="90.8" class="st19" width="11.1" height="569.1"/>
				<rect x="592.7" y="645.4" class="st19" width="495.4" height="4.5"/>
				<rect x="581.5" y="87.9" class="st19" width="517.7" height="12.8"/>
				<rect x="592.6" y="100.7" class="st19" width="495.6" height="4.5"/>
			</g>
		</g>
		<rect x="74.9" y="189.1" class="st19" width="1042.5" height="6.4"/>
		<rect x="74.9" y="360.3" class="st19" width="1042.5" height="6.4"/>
		<rect x="74.9" y="531.6" class="st19" width="1042.5" height="6.4"/>
	</g>
</g>
<ellipse class="st37" cx="603.5" cy="654.7" rx="436.3" ry="23.6"/>
<g>
	<path class="st1" d="M497.6,296.3c-23.1,0-42-18.8-42-42h2c0,22.1,17.9,40,40,40s40-17.9,40-40h2
		C539.5,277.5,520.7,296.3,497.6,296.3z"/>
	<polygon class="st1" points="497,221.5 444.1,265.4 560.8,265.4 	"/>
	<linearGradient id="SVGID_3_" gradientUnits="userSpaceOnUse" x1="496.0747" y1="439.3965" x2="496.0747" y2="259.1992">
		<stop  offset="0" style="stop-color:#FFFFFF;stop-opacity:0"/>
		<stop  offset="1" style="stop-color:#F9D77F"/>
	</linearGradient>
	<polygon class="st25" points="470.7,259.2 414.8,439.4 577.4,439.4 524.5,259.2 	"/>
	<linearGradient id="SVGID_4_" gradientUnits="userSpaceOnUse" x1="497.145" y1="217.7686" x2="497.145" y2="159.6709">
		<stop  offset="0" style="stop-color:#F2CD5D"/>
		<stop  offset="1" style="stop-color:#FFFFFF;stop-opacity:0"/>
	</linearGradient>
	<rect x="494.6" y="159.7" class="st16" width="5.1" height="58.1"/>
	<path class="st8" d="M505.8,246h-17.2v-12.6c0-3.4,2.7-6.1,6.1-6.1h5.1c3.4,0,6.1,2.7,6.1,6.1V246z"/>
	<circle class="st10" cx="496.9" cy="266.9" r="10"/>
	<path class="st19" d="M497.1,273.1c-2.4-0.4-5.6-2.3-6.3-4.8c-0.2-0.9-1.6-0.5-1.4,0.4c0.7,3,4.4,5.3,7.3,5.8
		C497.6,274.7,498,273.3,497.1,273.1z"/>
	<polygon class="st6" points="497,221.5 438.6,265.4 555.4,265.4 	"/>
	<path class="st1" d="M499.4,227h-4.8c-1.7,0-3-1.4-3-3v-4.8c0-1.7,1.4-3,3-3h4.8c1.7,0,3,1.4,3,3v4.8
		C502.4,225.6,501.1,227,499.4,227z"/>
</g>
<g>
	<g>
		<g>
			<g>
				<g>
					<polygon class="st6" points="621.3,474.2 670.4,474.2 662.4,488.4 621.3,488.4 					"/>
				</g>
				<g>
					<polygon class="st21" points="656.7,488.4 607.6,488.4 613.5,474.2 656.7,474.2 					"/>
				</g>
				<g>
					<polygon class="st21" points="688.1,652.4 639.6,480.3 646.3,478.4 695.3,652.4 					"/>
				</g>
				<g>
					<polygon class="st21" points="569.7,652.4 618.7,478.4 625.4,480.3 576.9,652.4 					"/>
				</g>
			</g>
			<g>
				<g>
					<polygon class="st6" points="899.2,474.2 948.3,474.2 940.3,488.4 899.2,488.4 					"/>
				</g>
				<g>
					<polygon class="st21" points="934.6,488.4 885.5,488.4 891.4,474.2 934.6,474.2 					"/>
				</g>
				<g>
					<polygon class="st21" points="966,652.4 917.5,480.3 924.3,478.4 973.2,652.4 					"/>
				</g>
				<g>
					<polygon class="st21" points="847.6,652.4 896.6,478.4 903.3,480.3 854.9,652.4 					"/>
				</g>
			</g>
			<g>
				<rect x="605.9" y="470.1" class="st21" width="352.6" height="5.5"/>
			</g>
		</g>
	</g>
</g>
<g>
	<g>
		<g>
			<g>
				<g>
					<g>
						<g>
							<g>
								<path class="st20" d="M989.3,269.6l-2.7-6.7c-1.1,0-2.2,0-3.3-0.2l-2.3,5.4c-0.2,0.4-0.5,0.7-0.9,0.9
									c-0.4,0.2-0.9,0.2-1.3,0l-7.6-3.2c-0.9-0.4-1.3-1.3-0.9-2.2l2.4-5.8c-0.7-0.6-1.4-1.3-2-2.1l-6.2,2.5
									c-0.4,0.2-0.9,0.2-1.3,0c-0.4-0.2-0.7-0.5-0.9-0.9l-3.1-7.6c-0.3-0.9,0.1-1.8,0.9-2.2l5.9-2.4c-0.2-1.3-0.2-2.6-0.1-3.9
									l-5.8-2.4c-0.9-0.4-1.3-1.3-0.9-2.2l3.2-7.6c0.2-0.4,0.5-0.7,0.9-0.9c0.4-0.2,0.9-0.2,1.3,0l5.4,2.3
									c1.1-1.4,2.4-2.7,3.8-3.8l-2.4-5.9c-0.2-0.4-0.2-0.9,0-1.3c0.2-0.4,0.5-0.7,0.9-0.9l7.6-3.1c0.9-0.3,1.8,0.1,2.2,0.9
									l2.5,6.2c1-0.1,1.9-0.1,2.9,0l2.4-5.8c0.2-0.4,0.5-0.7,0.9-0.9c0.4-0.2,0.9-0.2,1.3,0l7.6,3.2c0.9,0.4,1.3,1.3,0.9,2.2
									l-2.3,5.4c1.4,1.1,2.7,2.4,3.8,3.8l5-2c0.4-0.2,0.9-0.2,1.3,0c0.4,0.2,0.7,0.5,0.9,0.9l3.1,7.6c0.2,0.4,0.2,0.9,0,1.3
									c-0.2,0.4-0.5,0.7-0.9,0.9l-5.3,2.2c0.1,1.4,0.1,2.9-0.1,4.3l5.4,2.3c0.4,0.2,0.7,0.5,0.9,0.9s0.2,0.9,0,1.3l-3.2,7.6
									c-0.4,0.9-1.3,1.3-2.2,0.9l-5.8-2.4c-1.1,1.2-2.3,2.3-3.7,3.2l2.4,5.9c0.2,0.4,0.2,0.9,0,1.3s-0.5,0.7-0.9,0.9l-7.6,3.1
									c-0.2,0.1-0.4,0.1-0.6,0.1C990.2,270.6,989.6,270.3,989.3,269.6z M994.1,259.3c-0.3-0.8,0-1.7,0.7-2.1
									c1.9-1.1,3.5-2.5,4.8-4.2c0.5-0.6,1.3-0.8,2-0.5l5.4,2.3l1.9-4.5l-5.1-2.2c-0.7-0.3-1.2-1.1-1-1.9c0.4-1.9,0.5-3.9,0.2-5.8
									c-0.1-0.8,0.3-1.5,1-1.8l4.9-2l-1.8-4.5l-4.7,1.9c-0.7,0.3-1.6,0-2-0.6c-1.3-1.9-2.9-3.5-4.8-4.8c-0.7-0.4-0.9-1.3-0.6-2.1
									l2.2-5.1l-4.5-1.9l-2.3,5.4c-0.3,0.7-1,1.1-1.8,1c-1.5-0.2-3.1-0.2-4.6,0c-0.8,0.1-1.5-0.3-1.8-1l-2.4-5.8l-4.5,1.8l2.3,5.6
									c0.3,0.7,0,1.6-0.6,2c-1.9,1.3-3.5,2.9-4.8,4.8c-0.4,0.7-1.3,0.9-2.1,0.6l-5.1-2.2l-1.9,4.5l5.4,2.3c0.7,0.3,1.1,1,1,1.8
									c-0.3,1.9-0.2,3.7,0.1,5.5c0.2,0.8-0.3,1.6-1,1.9L963,250l1.8,4.5l5.8-2.4c0.7-0.3,1.5-0.1,2,0.6c0.9,1.2,2,2.3,3.2,3.3
									c0.6,0.5,0.8,1.3,0.5,2l-2.3,5.4l4.5,1.9l2.2-5.1c0.3-0.7,1.1-1.2,1.9-1c1.6,0.4,3.3,0.5,4.9,0.3c0.7-0.1,1.4,0.4,1.7,1
									l2.5,6.3l4.5-1.8L994.1,259.3z M982.6,251.2L982.6,251.2c-2.3-1-4-2.7-5-5c-0.9-2.3-0.9-4.8,0-7.1c2-4.7,7.4-6.9,12.1-4.9
									c4.7,2,6.9,7.4,4.9,12.1c-1,2.3-2.7,4-5,5c-1.1,0.5-2.3,0.7-3.5,0.7C985,251.9,983.8,251.7,982.6,251.2z M980.8,240.4
									c-0.6,1.4-0.6,3,0,4.5c0.6,1.5,1.7,2.6,3.2,3.2l0,0c1.4,0.6,3,0.6,4.5,0c1.5-0.6,2.6-1.7,3.2-3.2c1.3-3-0.1-6.5-3.1-7.7
									c-0.7-0.3-1.5-0.5-2.3-0.5C983.9,236.8,981.7,238.1,980.8,240.4z"/>
							</g>
						</g>
					</g>
				</g>
			</g>
		</g>
	</g>
	<g>
		<path class="st20" d="M893.2,377.5h82.4c6.2,0,11.2-5,11.2-11.2v-87.4c0-0.5-0.4-0.9-0.9-0.9c-0.5,0-0.9,0.4-0.9,0.9v87.4
			c0,5.2-4.2,9.3-9.3,9.3h-82.4c-0.5,0-0.9,0.4-0.9,0.9S892.7,377.5,893.2,377.5z"/>
	</g>
</g>
<g>
	<path class="st37" d="M669.4,470.1h25.4l9.2-48c1.5-7.7-4.4-14.8-12.2-14.8h0c-6,0-11.1,4.2-12.2,10.1L669.4,470.1z"/>
	<g>
		<path class="st21" d="M695.2,459.4l-1-0.2l7.2-37.6c0.6-2.9-0.2-5.8-2.1-8.1c-1.9-2.3-4.6-3.6-7.5-3.6c-4.7,0-8.7,3.3-9.6,7.9
			l-4.3,22.4l-1-0.2l4.3-22.4c1-5.1,5.4-8.8,10.6-8.8c3.2,0,6.3,1.4,8.3,3.9c2.1,2.5,2.9,5.7,2.3,8.9L695.2,459.4z"/>
	</g>
	<rect x="674.9" y="465.8" class="st37" width="67.3" height="4.3"/>
	<g>
		<rect x="687" y="465.3" class="st21" width="55.2" height="1"/>
	</g>
	<path class="st19" d="M774.5,451.2h-145c-3.9,0-7.1-2.9-7.5-6.8l-9.2-87.6c-0.5-4.5,3-8.3,7.5-8.3h145c3.9,0,7.1,2.9,7.5,6.8
		l9.2,87.6C782.5,447.3,779,451.2,774.5,451.2z"/>
	<path class="st17" d="M625.2,440.5l-8.8-84c-0.1-1.1,0.2-2.2,1-3.1c0.8-0.9,1.8-1.3,3-1.3h145c2.1,0,3.8,1.5,4,3.6l8.9,84.8H625.2z
		"/>
	<g>
		<defs>
			<path id="SVGID_5_" d="M625.2,440.5l-8.8-84c-0.1-1.1,0.2-2.2,1-3.1c0.8-0.9,1.8-1.3,3-1.3h145c2.1,0,3.8,1.5,4,3.6l8.9,84.8
				H625.2z"/>
		</defs>
		<clipPath id="SVGID_6_">
			<use xlink:href="#SVGID_5_"  style="overflow:visible;"/>
		</clipPath>
		<g class="st12">
			<path class="st21" d="M704.9,361.9c1.9-5.7,8.8-11.3,19.5-2.8c11.4,9,16.2,56.7,16.5,88.6c0,0-3.1,2.5-8.3,1.2
				c0,0-1.5-15.7-1.8-18.1c0,0,0,14-0.6,16.8c0,0-8.3,2.9-11.4,0c0,0,5.6-46.7-4-60.9C705.8,373.4,702.8,367.8,704.9,361.9z"/>
			<path class="st3" d="M698.2,415.7c8.1,0.3,32.5-2.1,38.6,11.3c30.8,68.2-26.3,164.7-26.3,164.7c-58.2-14-34.7-60.6-87.2-90.4
				c0,0,29.4-43.6,38-63.4C670.4,416.9,688.4,415.4,698.2,415.7z"/>
			<g>
				<g>
					<path class="st21" d="M721.3,396.2c-2.4,4.1-6.7,6.9-6.2-1.9c0.6-10.8-30.9-15.8-18.8-24.5
						C714.4,356.6,730.8,379.8,721.3,396.2z"/>
					<path class="st0" d="M697.6,402.2v13.9c0.9,1.4,6,8.5,18.7,0.1v-21C716.3,395.2,709.2,398.5,697.6,402.2z"/>
					<path class="st21" d="M697.6,407.3v7.5c9.9,0.2,10.1-9.7,10.1-9.7C703,408.2,699,407.5,697.6,407.3z"/>
					<path class="st0" d="M698.6,409.6c5.4,0,15.2-7.4,17.3-12.3c0.8-1.8,0.5-6.4-0.2-8.6c-2.2-7-4-13.4-9.5-15.4
						c-2.3-0.8-10.7,2-12.8,2.5c-4,0.9-5.8,5-5.8,12.1C687.6,395.9,689.2,409.7,698.6,409.6z"/>
					<g>
						<path class="st21" d="M695,397.1c-0.5-0.1-3.1-0.9-3.5-2.1c-0.1-0.3-0.1-0.7,0.2-1.1c1.9-2.4,1.5-6.2,1.4-7.2
							c-0.5-0.3-2.1-0.9-4.2-0.2l-0.3-0.9c3-1,5.2,0.4,5.2,0.4l0.2,0.1l0,0.2c0,0.2,0.8,5.2-1.6,8.2c-0.1,0.1-0.1,0.2-0.1,0.2
							c0.2,0.5,1.6,1.1,2.8,1.5L695,397.1z"/>
					</g>
					<path class="st21" d="M714.7,384.8c0,0-3.1,3.7-5.7-2c-3.2-7-14.3-5.9-18.9-5.1c0,0-0.6,0.5-2.4,6.6c0,0-2.8-12.1,10.9-15.1
						C712,366.3,715.6,379.3,714.7,384.8z"/>
					<circle class="st0" cx="715.8" cy="389.8" r="5"/>
					<g>
						<path class="st21" d="M716.2,392.6c-0.5,0-1.1-0.2-1.4-0.7c-0.5-0.8,0-1.3,0.3-1.5c0.3-0.2,0.4-0.4,0.3-0.8
							c-0.1-0.4-0.3-0.6-0.6-0.9c-0.5-0.6-0.9-1.1,0-2.3c0.3-0.4,0.7-0.6,1.2-0.6c0,0,0,0,0,0c1.4,0,3,1.8,3.2,2l-0.8,0.7
							c-0.6-0.6-1.7-1.7-2.5-1.7c0,0,0,0,0,0c-0.2,0-0.3,0.1-0.4,0.2c-0.4,0.5-0.4,0.5-0.1,0.9c0.3,0.3,0.6,0.7,0.8,1.3
							c0.2,1-0.3,1.5-0.6,1.8c-0.1,0.1-0.1,0.1-0.2,0.2c0,0,0,0,0,0.1c0.3,0.5,1.4,0,1.5,0l0.4,0.9
							C717.2,392.5,716.7,392.6,716.2,392.6z"/>
					</g>
					<path class="st21" d="M693,399.9c0,0,5,2.3,9.4-0.6c0,0-1.8,5-4.8,4.7C694.7,403.7,693,399.9,693,399.9z"/>
					<g>
						<path class="st21" d="M698.2,386.2l-0.8-0.6c0.1-0.1,2-2.7,7.2-1l-0.3,0.9C699.8,384.1,698.2,386.2,698.2,386.2z"/>
					</g>
					<circle class="st21" cx="701.8" cy="388.8" r="1.7"/>
					<circle class="st21" cx="691.6" cy="388.8" r="1.7"/>
				</g>
			</g>
		</g>
	</g>
	<path class="st3" d="M537.9,395.2l-7.3-69.8c-0.1-0.9,0.2-1.9,0.8-2.6c0.6-0.7,1.5-1.1,2.5-1.1h120.5c1.7,0,3.1,1.3,3.3,3l7.4,70.5
		H537.9z"/>
	<path class="st14" d="M531,329.6h127.2l-0.5-4.9c-0.2-1.7-1.6-3-3.3-3H533.9c-1,0-1.8,0.4-2.5,1.1c-0.6,0.7-0.9,1.6-0.8,2.6
		L531,329.6z"/>
	<g>
		<path class="st21" d="M774.5,448.4h-145c-0.2,0-0.3,0-0.5,0l0.1-1c0.1,0,0.2,0,0.4,0h145c1.1,0,2.1-0.4,2.8-1.3
			c0.7-0.8,1.1-1.8,1-2.9l-9.2-87.6c-0.2-1.9-1.8-3.4-3.8-3.4v-1c2.5,0,4.5,1.8,4.8,4.3l9.2,87.6c0.1,1.4-0.3,2.7-1.2,3.7
			C777.2,447.9,775.9,448.4,774.5,448.4z"/>
	</g>
	<path class="st19" d="M748.8,402.8L742,338c-0.1-0.9,0.2-1.7,0.8-2.4c0.6-0.7,1.4-1,2.3-1h111.8c1.6,0,2.9,1.2,3.1,2.8l6.9,65.4
		H748.8z"/>
	<path class="st14" d="M742.3,341.1h118l-0.4-3.8c-0.2-1.6-1.5-2.8-3.1-2.8H745.1c-0.9,0-1.7,0.4-2.3,1c-0.6,0.7-0.9,1.5-0.8,2.4
		L742.3,341.1z"/>
	<g>
		<defs>
			<path id="SVGID_7_" d="M537.9,395.2l-7.3-69.8c-0.1-0.9,0.2-1.9,0.8-2.6c0.6-0.7,1.5-1.1,2.5-1.1h120.5c1.7,0,3.1,1.3,3.3,3
				l7.4,70.5H537.9z"/>
		</defs>
		<clipPath id="SVGID_8_">
			<use xlink:href="#SVGID_7_"  style="overflow:visible;"/>
		</clipPath>
		<g class="st13">
			<g>
				<path class="st20" d="M601.1,383.1c-9.4,14.4,1.1,49.4,34.1,83.3c0,0,11.1-11.7,21.7-35.2c0,0-9.1-22.5-24.7-40.1
					C616.5,373.6,605,377.1,601.1,383.1z"/>
				<path class="st15" d="M656.4,425.8c1.3,2.5,2.7,5.1,2.7,5.1s-0.4,2.5-1.5,5c-9,20.6-26.5,39.3-26.5,39.3l-5.8-7.7
					C634.9,456.1,651.9,435.8,656.4,425.8z"/>
				<g>
					<path class="st21" d="M631.6,475.2c1.9-1.9,18.4-20.9,26.4-39.2c1.1-2.5,1.5-5,1.5-5.1l0-0.2l-0.1-0.1c0,0-1.5-2.7-2.7-5.1
						l-0.4-0.8l-0.4,0.9c-0.7,1.7-1.7,3.5-3,5.5l0.8,0.5c1.1-1.7,1.9-3.3,2.6-4.8c1,1.9,1.9,3.7,2.2,4.2c-0.1,0.6-0.6,2.6-1.5,4.7
						c-8,18.2-24.3,37-26.2,38.9L631.6,475.2z"/>
				</g>
			</g>
			<path class="st19" d="M592.1,374.2c-29.7,2.5-44.5,87.3-30.4,133.6c0,0,44.3,1.1,80.4-35.8c0,0-1.5-11.4-12-21.4
				c0,0-1.4-46.3-11.8-62.4C607.8,372.1,599,373.6,592.1,374.2z"/>
			<path class="st20" d="M631.3,498.6c-1.5-1.5-13.8-3.6-13.8-14.6c0-4-1.7-29.5-2.3-36.9c-0.6-7.3-2.1-59.4-6-69.6
				c4,1.8,5.2,3.3,9.9,10.4c10.4,16,7.9,46,14.3,60.5c5.9,13.3,17.4,29.2,17.4,29.2C638.8,474.9,640.7,493.5,631.3,498.6z"/>
			<g>
				<path class="st21" d="M619.7,486l0.9-0.3c-1.5-5-1-8.7,1.4-21.4c2.5-13.1,0.3-55.7,0.3-56.1l0-0.6l-0.6,0.2
					c-0.7,0.3-1.5,0.5-2.1,0.7c0.6-1.1,1.5-3,1.7-3.5l0.1-0.1l0-0.2c-2.5-9.6-10.7-26.1-10.8-26.3l-0.8,0.4
					c0.1,0.2,8.2,16.4,10.7,26c-0.6,1.4-1.7,3.6-1.9,3.9c-0.2,0.2-0.2,0.5-0.1,0.7c0.2,0.3,0.3,0.5,3.1-0.5c0.3,5.3,2,43.2-0.3,55.3
					C618.6,477,618.2,480.9,619.7,486z"/>
			</g>
			<path class="st20" d="M592.1,374.2c0,0,9.7,13.2,9.9,25.8c0.2,14.6,5.2,36.9-0.6,70.9c-5.6,32.4,9.3,42.4,9.6,42.8
				c-22.6,9.4-58.3-5.3-58.3-5.3c-3-23.9-2.5-63.9,4.3-91.1C563.9,390,577.2,375.4,592.1,374.2z"/>
			<g>
				<path class="st21" d="M601.4,503.8l0.9-0.3c-1-3.3-2-5.5-2.8-7.4c-2.1-4.6-3.7-8.3-4.4-24.1c-0.9-20.9-0.1-58.5,0-63.6l3.2,0.9
					l-2.8-4.5c-3.6-12.4-3.1-29.6-3.1-29.8l-0.9,0c0,0.2-0.5,17.5,3.2,30.1l0.1,0.1l1.6,2.6l-2.1-0.6l0,0.6c0,0.4-1,41.9,0,64.3
					c0.7,16,2.3,19.7,4.5,24.4C599.5,498.5,600.4,500.6,601.4,503.8z"/>
			</g>
			<path class="st21" d="M572.5,398.5l3.1,57.1C575.6,455.6,550.1,438.4,572.5,398.5z"/>
			<g>
				<path class="st21" d="M614.7,331.6c4.3,4.3,6.8,17.4,1.4,28.1c-5.4,10.7,0.1,15.7,0.1,15.7s-20.9,0-26-3.3c0,0,1.3-3.6,0.5-8.4
					c0,0-0.7,4.2-3.2,7.1c0,0-4.8,2.7-10.4-2.2c0,0,7.7-7.5,7.7-22c0.1-14.6,9.4-19,14.5-19.7S610.8,327.7,614.7,331.6z"/>
				<path class="st0" d="M615.2,360.8l-5.6,18.6c0,0-11.6,4.1-17.6-5.2l5-18.9L615.2,360.8z"/>
				<path class="st21" d="M613.8,365.7l-1.8,6c-12,0.2-11.2-10.3-11.1-10.3C613.2,365.5,613.8,365.7,613.8,365.7z"/>
				<path class="st0" d="M614.4,368.2c-5,0.7-15-4.8-17.6-9c-0.9-1.5-1.3-5.8-0.9-8c1.1-6.8,1.9-12.9,6.7-15.4
					c2-1.1,4.1-1.4,6.1-1.2c6.6,0.4,11.7,4.2,12.7,10.7C622.5,352.7,623.1,367,614.4,368.2z"/>
				<g>
					<path class="st21" d="M617,355.3c0.4-0.2,2.6-1.5,2.7-2.7c0-0.3,0-0.6-0.5-1c-2.3-1.7-2.7-4.8-2.7-5.4c0.2-0.4,1.2-1.9,3.3-1.7
						l0.1-0.9c-2.4-0.2-3.9,1.4-4.3,2.3l0,0.1l0,0.1c0,0.2,0.2,4,3.1,6.2c0.1,0.1,0.1,0.1,0.1,0.2c0,0.5-1.2,1.4-2.2,2L617,355.3z"
						/>
				</g>
				<path class="st21" d="M596.2,349.6c0,0,4.7-8.2,10.3-10.6c0,0,11.4-0.8,14.3,4.3c0,0-0.4-12.5-13.5-12
					C594.7,331.7,594.1,344.8,596.2,349.6z"/>
				<g>
					<path class="st0" d="M606,339.6l0.8-0.5c-1.9-3.1-4.5-3.7-4.7-3.7l-0.2,0.9C601.9,336.3,604.3,336.9,606,339.6z"/>
				</g>
				<circle class="st0" cx="595.3" cy="353.6" r="4.7"/>
				<g>
					<path class="st21" d="M595.6,357.2c0.1,0,0.2,0,0.3,0c0.3-0.1,0.6-0.3,0.8-0.6c0.4-0.7,0-1.2-0.2-1.5c-0.3-0.3-0.5-0.5-0.3-1.1
						c0.1-0.5,0.4-0.8,0.6-1.2c0.4-0.5,1-1.3-0.1-2.2c-1.6-1.2-4,1.1-4.1,1.2l0.6,0.6c0.5-0.5,2.1-1.8,2.9-1.1
						c0.4,0.3,0.4,0.4,0,0.9c-0.3,0.4-0.6,0.8-0.8,1.5c-0.2,1,0.2,1.5,0.5,1.9c0.3,0.3,0.2,0.3,0.2,0.5c-0.1,0.1-0.1,0.1-0.2,0.2
						c-0.3,0.1-0.9-0.2-1.1-0.3l-0.5,0.8C594.2,356.7,594.9,357.2,595.6,357.2z"/>
				</g>
				<g>
					<path class="st21" d="M607,347.8c3.2-2.8,4.6-1.6,4.6-1.6l0.6-0.6c-0.1-0.1-2-1.9-5.9,1.5L607,347.8z"/>
				</g>
				<g>
					<path class="st21" d="M618,358.6c0.3,2-1,3.9-3,4.4c-2.2,0.6-4.3-0.7-4.9-2.9c-0.1-0.5-0.1-0.9-0.1-1.4
						C612.7,358.9,615.4,358.9,618,358.6z"/>
					<path class="st17" d="M616.6,362c0,0,0,0.1,0,0.1c-0.4,0.4-1,0.7-1.6,0.8c-2.2,0.6-4.3-0.7-4.9-2.9
						C610,359.4,616.3,358.9,616.6,362z"/>
				</g>
				<circle class="st21" cx="609.6" cy="348.6" r="1.1"/>
				<circle class="st21" cx="619.2" cy="347.3" r="1.1"/>
				<g>
					<path class="st21" d="M600.7,360.7c0.7-2.3,0.1-4.2-0.5-6.1c-0.5-1.6-1-3.1-0.7-4.8c0.3-1.8,1.3-3.1,2.1-4.4
						c1-1.6,2.1-3.2,2.2-5.3l-0.9,0c0,1.9-1,3.3-2,4.9c-0.9,1.4-1.9,2.8-2.3,4.8c-0.4,2,0.2,3.7,0.7,5.3c0.6,1.8,1.1,3.5,0.5,5.6
						L600.7,360.7z"/>
				</g>
			</g>
			<g>
				<path class="st20" d="M584.8,381.3c-16.4,5-27.6,40.4-24,87.5c0,0,16.7,3.1,39.5-19.9c0,0,1.5-18.1,0.7-41.6
					C600.3,383.8,591.7,379.2,584.8,381.3z"/>
				<g>
					<path class="st21" d="M560.4,468.3l0.9-0.1c-2.7-36.2,2.1-65.5,12.7-78.5l-0.7-0.6C562.3,402.6,557.6,431.4,560.4,468.3z"/>
				</g>
				<path class="st15" d="M601.1,442.1c0.3,2.7,0.7,5.8,0.7,5.8s-1.3,2.2-3.2,4.1c-15.7,16.1-38.2,18.7-38.2,18.7l-2.7-9.3
					C570.7,454.1,593.4,449.9,601.1,442.1z"/>
				<g>
					<path class="st21" d="M560.9,470.9c2.5-1.1,24.1-4.3,38.1-18.6c1.9-2,3.2-4.1,3.2-4.2l0.1-0.1l0-0.2c0,0-0.4-3-0.7-5.7
						l-0.1-0.9l-0.7,0.7c-1.3,1.3-2.8,2.6-4.7,4.1l0.6,0.7c1.6-1.3,3-2.4,4.1-3.5c0.2,2.1,0.5,4.1,0.6,4.7c-0.3,0.5-1.4,2.3-3,3.9
						C584.4,465.8,563,469,560.5,470L560.9,470.9z"/>
				</g>
			</g>
		</g>
	</g>
	<g>
		<defs>
			<path id="SVGID_9_" d="M748.8,402.8L742,338c-0.1-0.9,0.2-1.7,0.8-2.4c0.6-0.7,1.4-1,2.3-1h111.8c1.6,0,2.9,1.2,3.1,2.8l6.9,65.4
				H748.8z"/>
		</defs>
		<clipPath id="SVGID_10_">
			<use xlink:href="#SVGID_9_"  style="overflow:visible;"/>
		</clipPath>
		<g class="st36">
			<g>
				<path class="st5" d="M782.6,383.5c-5.4-0.5-14.7,5-19.1,16.2s-27,79-27.9,87.2c0,0,17.1,14.4,39,10.2c0,0,22.3-73.4,24.8-84.5
					C803.5,395.1,798,385,782.6,383.5z"/>
				<g>
					<g>
						<path d="M737.3,482.7c-0.8-0.6-1.2-0.9-1.2-0.9l0.6-0.8c0,0,0.4,0.3,1.2,0.9L737.3,482.7z"/>
					</g>
					<g>
						<path d="M768.2,492.4l-0.4,0l0-1l0.4,0c0.9,0,1.7,0,2.6-0.1l0.1,1C770,492.3,769.1,492.4,768.2,492.4z M763.8,492.2
							c-1-0.1-2-0.2-3-0.3l0.1-1c1,0.1,2,0.3,3,0.3L763.8,492.2z M756.7,491.1c-1-0.2-2-0.5-3-0.7l0.3-1c1,0.3,1.9,0.5,2.9,0.7
							L756.7,491.1z M749.9,489.2c-1-0.3-1.9-0.7-2.8-1.1l0.4-0.9c0.9,0.4,1.8,0.7,2.8,1.1L749.9,489.2z M743.4,486.4
							c-0.9-0.5-1.8-0.9-2.7-1.4l0.5-0.9c0.9,0.5,1.7,1,2.6,1.4L743.4,486.4z"/>
					</g>
					<g>
						<path d="M774.9,491.9l-0.1-1c0.5-0.1,1-0.1,1.5-0.2l0.2,1C775.9,491.8,775.4,491.9,774.9,491.9z"/>
					</g>
				</g>
			</g>
			<path class="st5" d="M807,387.1c3.9-3.8,15.1-5,26.6,1.6c11.5,6.6,77.3,49.2,83.8,55.5c0,0-3.2,22.6-23.5,32.8
				c0,0-69.6-47.4-79.5-55.1C798.8,409.8,795.9,397.9,807,387.1z"/>
			<g>
				<circle class="st0" cx="795.4" cy="364.1" r="4"/>
				<g>
					<path class="st21" d="M795.3,367.2c-0.6,0-1.3-0.4-1.3-0.5l0.6-0.8c0.2,0.1,0.6,0.3,0.8,0.3c0,0,0.1,0,0.1-0.1
						c0-0.1-0.1-0.2-0.1-0.3c-0.2-0.3-0.7-0.8-0.5-1.7c0.1-0.5,0.3-0.9,0.5-1.1c0.3-0.5,0.3-0.5-0.1-0.8c-0.7-0.5-1.9,0.9-1.9,0.9
						l-0.8-0.6c0.7-0.8,2.1-2,3.3-1c1,0.8,0.6,1.6,0.3,2.1c-0.1,0.3-0.3,0.5-0.4,0.9c-0.1,0.4,0,0.6,0.3,0.8
						c0.2,0.3,0.6,0.7,0.2,1.4c-0.2,0.3-0.4,0.5-0.8,0.5C795.5,367.2,795.4,367.2,795.3,367.2z"/>
				</g>
			</g>
			<g>
				<circle class="st0" cx="818.5" cy="364.1" r="4"/>
				<g>
					<path class="st21" d="M818.6,367.2c-0.1,0-0.2,0-0.3,0c-0.3-0.1-0.6-0.3-0.8-0.5c-0.4-0.7,0-1.2,0.2-1.4
						c0.2-0.3,0.3-0.4,0.3-0.8c-0.1-0.4-0.2-0.6-0.4-0.9c-0.3-0.5-0.7-1.3,0.4-2.1c1.2-0.9,2.6,0.2,3.3,1l-0.8,0.6
						c0,0-1.2-1.4-1.9-0.9c-0.4,0.3-0.4,0.3-0.1,0.8c0.2,0.3,0.4,0.7,0.5,1.1c0.2,0.9-0.2,1.4-0.5,1.7c-0.1,0.1-0.1,0.2-0.2,0.2
						c0.1,0.1,0.1,0.1,0.2,0.1c0.2,0,0.6-0.1,0.8-0.3l0.6,0.8C819.9,366.8,819.3,367.2,818.6,367.2z"/>
				</g>
			</g>
			<path class="st5" d="M822.3,384c-5.1,0-31.2,0-36.3,0c-7.5,0-14.9,6.7-15.7,30.7c-0.6,17.3-8.7,64.9,1.2,57.3
				c0,0,38.3,8.8,73.4-4c9.2,7.7-0.3-32.9-5.4-60.6C836.8,392.5,829.4,384,822.3,384z"/>
			<path class="st3" d="M806.7,389.1l4.4,6.1c0,0,5.3-5.9,5.3-11.4l-1.3-1.8h-16.6l-1.2,1.9c0,0,0.8,8.8,3.4,11.4L806.7,389.1z"/>
			<path class="st0" d="M814.3,371.6v12.6c-0.9,1.4-7.7,3.9-7.7,3.9s-5.1-1.4-7.1-3.9v-18.1C799.5,366.1,805.1,368.7,814.3,371.6z"
				/>
			<path class="st21" d="M811.4,379.4c0.9-0.9,1.9-4.4,2.9-4.8v-3c-9.2-2.9-14.8-5.5-14.8-5.5v10.3c0.7,0.6,1.9,3.6,3.3,4.7
				C805.3,382.8,808.5,382.3,811.4,379.4z"/>
			<path class="st0" d="M817.4,361.2c0.9-6-0.7-9.1-6.6-11.1c-6.3-2.1-11.9,0.6-14.1,6.9c-0.7,2.2-0.7,5.1-0.3,7.2h0l0.6,7.1
				c0.3,1.2,1,2.2,2,3l4.7,3.6c0.7,0.5,1.6,0.8,2.4,0.8h1.7c0.9,0,1.8-0.3,2.5-0.9l4.5-3.5c0.9-0.7,1.6-1.8,2-2.9
				C816.8,371.3,817.1,362.9,817.4,361.2z"/>
			<path d="M800.3,352.9c8.3,1.7,14.3-0.1,14.9,0c0.7,0.1,1,4,1.1,5.8c0.1,1.8,1,3,1,3s-0.5,3.7,0.3,3.4s1.7-1.5,2.1-3.1
				c0.4-1.6,0.6-8.8-0.4-11.1c-1-2.3-7.2-6.1-8.3-8c-1.1-1.9-2.9-3.2-3.1-2.2c-0.2,1-0.1,2-0.1,2s-1.5-1.5-2.7,0
				c-1.2,1.5-7.4,3.5-8.9,5.5c-1.5,2-1.8,7.2-1.8,9c0,1.7,0.6,3.4,0.9,6c0.4,2.6,1.4,1.2,1.7,0.3c0.1-0.4-0.2-2.9-0.2-2.9
				s1.8-4.9,2-5.8C799.1,353.3,798.9,352.6,800.3,352.9z"/>
			<g>
				<path class="st21" d="M835.1,474.2l-2.4-1.7c5.6-7.9,2.8-24.5,0-40.6c-1.2-6.9-2.4-14-3-20.6c-2-21.4-9.2-27.1-9.3-27.1l1.8-2.4
					c0.3,0.3,8.4,6.5,10.5,29.2c0.6,6.4,1.8,13.5,3,20.3C838.6,448.8,841.5,465.3,835.1,474.2z"/>
			</g>
			<g>
				<path class="st21" d="M779.4,476.2c-5.9-9.1-3.3-26-0.5-43.9c1.1-7,2.2-14.2,2.8-20.9c2-23.2,9.5-29.7,9.8-29.9l1.9,2.3
					l-0.9-1.2l1,1.2c-0.1,0.1-6.9,6.1-8.8,27.9c-0.6,6.7-1.7,14-2.8,21.1c-2.6,16.6-5.3,33.7,0,41.8L779.4,476.2z"/>
			</g>
			<g>
				<path d="M803.1,474.4c-2.1-9.1-2.6-32-1-42.9c1.6-10.8,1.6-38.2,1.6-38.5l1,0c0,0.3-0.1,27.8-1.6,38.6c-1.5,10.6-1,33.7,1,42.6
					L803.1,474.4z"/>
			</g>
			<g>
				<path d="M809,422l-1,0c0.2-16-0.6-28.9-0.6-29l1-0.1C808.4,393,809.2,405.9,809,422z"/>
			</g>
			<g>
				<path class="st21" d="M806.9,366.8l-0.3-1c1.2-0.3,2.1-0.9,2.2-1.1c-2-2.5-1.3-5.8-1.3-5.9l1,0.2c0,0-0.6,2.9,1.1,5
					c0.2,0.3,0.3,0.7,0.2,1C809.5,366,807.5,366.6,806.9,366.8z"/>
			</g>
			<g>
				<path class="st21" d="M800.9,359.8l-0.6-0.8c3.2-2.1,5.6-0.2,5.6-0.1l-0.6,0.8C805.2,359.5,803.4,358.1,800.9,359.8z"/>
			</g>
			<g>
				<path class="st21" d="M812.4,369.2c0,0-4.1-2.3-10-0.1C802.4,369.2,806.5,377.2,812.4,369.2z"/>
				<path class="st17" d="M803.8,371.1c1.5,1.5,4,3,7.2-0.3C806,370.2,804.1,371,803.8,371.1z"/>
				<path class="st19" d="M811.7,370c0.2-0.3,0.4-0.5,0.7-0.8c0,0-4.1-2.3-10-0.1c0,0,0.1,0.3,0.4,0.6
					C803.5,369.6,808.7,368.9,811.7,370z"/>
			</g>
			<path class="st21" d="M804.2,361.2c0-0.1,0-0.1,0-0.2c0.1-0.6-0.3-1.1-0.9-1.2c-0.6-0.1-1.1,0.3-1.2,0.9c0,0.2,0,0.5,0.1,0.7
				C802.9,361.2,803.5,361.2,804.2,361.2z"/>
			<g>
				<path class="st21" d="M814.2,359.9c-0.1-0.1-1.6-1.8-4.4-0.4l-0.4-0.9c3.5-1.6,5.5,0.7,5.5,0.7L814.2,359.9z"/>
			</g>
			<path class="st21" d="M812.8,361.3c0,0,0-0.1,0.1-0.1c0.2-0.6-0.1-1.1-0.7-1.3c-0.6-0.2-1.1,0.1-1.3,0.7c-0.1,0.2-0.1,0.5,0,0.7
				C811.5,361.2,812.2,361.2,812.8,361.3z"/>
			<g>
				<path d="M845.4,436.3l-1,0c0.3-10-5.2-31.6-5.3-31.9l1-0.2C840.3,405.1,845.6,426.1,845.4,436.3z"/>
			</g>
		</g>
	</g>
</g>
<g>
	<path class="st14" d="M708.7,470.4c0,0,2.4-12.8,13.3-12.8c12.2,0,17.6,7.2,20.5,12.7L708.7,470.4z"/>
	<g>
		<path d="M862.9,636.2c0,0,5.5,2.2,15.1-13.6c9.6-15.8,8.3-30.9,1.8-36.3c-6.5-5.4-19.9,12.3-24,23.2S849.9,638.2,862.9,636.2z"/>
		<g>
			<path class="st20" d="M862.3,605.3c9,2.3,17.3,9.2,21.8,21.8c1.6,4.4,3.5,8.6,2.5,13.5c-0.8,4.2-4.2,7.9-7.3,9.9
				c-1,0.6-1,1.7,0.2,1.7c4.2,0,10.4-0.1,14.6-0.1c6.9,0,15-3.9,12.7-13.8c-2.3-9.9-0.7-17.4,2-28.2c2.7-10.8-1-18.2-12.9-20.2
				c-4.2-0.7-11.1-1.2-14.1-2.3c-1.7-0.6-6.9-3.8-8.2-4.5C873.7,583.1,855.1,595.2,862.3,605.3z"/>
			<path class="st19" d="M889.5,637.6c1.5-8.6,0.4-17.6,0-21.7c-0.5-4.7-3-11.6-0.5-18.1c2.9-7.9,7.6-7.6,8-7.6
				c10.9,1.8,14.4,9.5,11.8,20c-2.7,10.8-4.2,18.3-2,28.2s-5.9,13.8-12.7,13.8c-3.2,0-8.2,0-11.9,0.1c-1.2,0-1.7-1.5-0.8-2.3
				C884.3,647.7,888.4,643.9,889.5,637.6z"/>
			<path class="st37" d="M892.2,637.6c1.5-8.6,0.4-17.6,0-21.7c-0.5-4.7-3-11.6-0.5-18.1c2.9-7.9,7.6-7.6,8-7.6
				c10.9,1.8,14.4,9.5,11.8,20c-2.7,10.8-4.2,18.3-2,28.2s-5.9,13.8-12.7,13.8c-3.5,0-9.2,0-13.1,0c-0.9,0-1.2-1.1-0.5-1.6
				C886.1,648.5,891,644.6,892.2,637.6z"/>
			<ellipse class="st37" cx="901.4" cy="603.1" rx="7.9" ry="10.1"/>
			<g>
				<path class="st21" d="M888,612.2c-8.1-9.9-7-16.8-6.2-19.3c0.8-2.4,2.5-4.2,4.3-4.6l0.2,1c-1.5,0.3-2.9,1.9-3.6,3.9
					c-0.8,2.3-1.8,8.8,6,18.4L888,612.2z"/>
			</g>
			<g>
				<path class="st21" d="M882.9,623.7c-1.8-1.9-2.6-4-2.4-6.3c0.5-4.7,5.4-8.2,5.6-8.4l0.6,0.8c0,0-4.8,3.4-5.2,7.7
					c-0.2,1.9,0.5,3.8,2.1,5.5L882.9,623.7z"/>
			</g>
			<g>
				<path class="st21" d="M879.4,618.6c-1.6-2.1-2.1-4.2-1.7-6.4c0.8-4.2,5.2-6.9,5.4-7l0.5,0.9c0,0-4.2,2.6-5,6.4
					c-0.4,1.9,0.2,3.7,1.5,5.6L879.4,618.6z"/>
			</g>
		</g>
		<path class="st14" d="M837.7,523.1c9,9.8,15.7,18,28.1,46.5c3.5,8.1,13.4,16.4,13.4,16.4c-5.8-2.9-40.8,50-16.2,50.3
			c0,0-17.5,3.7-38.5-20.6c-20.9-24.3-31.2-81.4-29.2-94.1S822,505.9,837.7,523.1z"/>
		<path class="st21" d="M795.3,521.5c2-12.8,26.7-15.6,42.4,1.5c6.2,6.8,11.4,12.8,18.1,25.4c-1.2,0.1-2.7,0.2-3.4,0.2
			c-2.5,0.1-4.9,0.4-7.4,0.8c-8,1.4-14.6,5.8-18.5,12.9c-8.3,15.1,0.4,33.5,10.2,45.4c5.2,6.3,11.4,11.4,18.1,15.9
			c-1.3,7.1,0.6,12.4,8.3,12.5c0,0-17.5,3.7-38.5-20.6C803.5,591.4,793.2,534.3,795.3,521.5z"/>
	</g>
	<g>
		<path d="M792.9,636.2c0,0,5.5,2.2,15.1-13.6c9.6-15.8,8.3-30.9,1.8-36.3c-6.5-5.4-19.9,12.3-24,23.2
			C781.7,620.6,779.9,638.2,792.9,636.2z"/>
		<g>
			<path class="st20" d="M792.3,605.3c9,2.3,17.3,9.2,21.8,21.8c1.6,4.4,3.5,8.6,2.5,13.5c-0.8,4.2-4.2,7.9-7.3,9.9
				c-1,0.6-1,1.7,0.2,1.7c4.2,0,10.4-0.1,14.6-0.1c6.9,0,15-3.9,12.7-13.8c-2.3-9.9-0.7-17.4,2-28.2c2.7-10.8-1-18.2-12.9-20.2
				c-4.2-0.7-11.1-1.2-14.1-2.3c-1.7-0.6-6.9-3.8-8.2-4.5C803.7,583.1,785.1,595.2,792.3,605.3z"/>
			<path class="st20" d="M819.5,637.6c1.5-8.6,0.4-17.6,0-21.7c-0.5-4.7-3-11.6-0.5-18.1c2.9-7.9,7.6-7.6,8-7.6
				c10.9,1.8,14.4,9.5,11.8,20c-2.7,10.8-4.2,18.3-2,28.2s-5.9,13.8-12.7,13.8c-3.2,0-8.2,0-11.9,0.1c-1.2,0-1.7-1.5-0.8-2.3
				C814.3,647.7,818.4,643.9,819.5,637.6z"/>
			<path class="st37" d="M822.2,637.6c1.5-8.6,0.4-17.6,0-21.7c-0.5-4.7-3-11.6-0.5-18.1c2.9-7.9,7.6-7.6,8-7.6
				c10.9,1.8,14.4,9.5,11.8,20c-2.7,10.8-4.2,18.3-2,28.2c2.3,9.9-5.9,13.8-12.7,13.8c-3.5,0-9.2,0-13.1,0c-0.9,0-1.2-1.1-0.5-1.6
				C816.1,648.5,821,644.6,822.2,637.6z"/>
			<ellipse class="st37" cx="831.4" cy="603.1" rx="7.9" ry="10.1"/>
			<g>
				<path class="st21" d="M818,612.2c-8.1-9.9-7-16.8-6.2-19.3c0.8-2.4,2.5-4.2,4.3-4.6l0.2,1c-1.5,0.3-2.9,1.9-3.6,3.9
					c-0.8,2.3-1.8,8.8,6,18.4L818,612.2z"/>
			</g>
			<g>
				<path class="st21" d="M812.9,623.7c-1.8-1.9-2.6-4-2.4-6.3c0.5-4.7,5.4-8.2,5.6-8.4l0.6,0.8c0,0-4.8,3.4-5.2,7.7
					c-0.2,1.9,0.5,3.8,2.1,5.5L812.9,623.7z"/>
			</g>
			<g>
				<path class="st21" d="M809.4,618.6c-1.6-2.1-2.1-4.2-1.7-6.4c0.8-4.2,5.2-6.9,5.4-7l0.5,0.9c0,0-4.2,2.6-5,6.4
					c-0.4,1.9,0.2,3.7,1.5,5.6L809.4,618.6z"/>
			</g>
		</g>
		<path class="st14" d="M767.7,523.1c9,9.8,15.7,18,28.1,46.5c3.5,8.1,13.4,16.4,13.4,16.4c-5.8-2.9-40.8,50-16.2,50.3
			c0,0-17.5,3.7-38.5-20.6c-20.9-24.3-31.2-81.4-29.2-94.1S752,505.9,767.7,523.1z"/>
		<path class="st14" d="M875.1,545.5c-11.4,3.8-32.3,1.8-53.9,1.8s-63.7,2.8-76.2-2.8c-8.9-4-29.3-17.6-15.1-36.9
			c14.2-19.4,133.6-23.2,146.1-23.7S905.8,535.1,875.1,545.5z"/>
		<path class="st0" d="M868.5,357.8l6,18.3c0,0,14.7,3.7,20.9-6.2l-7.5-17L868.5,357.8z"/>
		<g>
			<g>
				<path class="st21" d="M865,524.1l-0.6-1.9c0.6-0.2,0.9-0.3,0.9-0.3l0.6,1.9C865.9,523.8,865.6,523.9,865,524.1z"/>
			</g>
			<g>
				<path class="st21" d="M779.8,614.8c-0.6-0.4-1.1-0.8-1.7-1.2l1.2-1.6c0.5,0.4,1.1,0.8,1.6,1.2L779.8,614.8z M775.7,611.7
					c-0.5-0.4-1-0.9-1.6-1.3l1.3-1.5c0.5,0.4,1,0.9,1.5,1.3L775.7,611.7z M771.9,608.3c-0.5-0.5-1-1-1.4-1.4l1.4-1.4
					c0.5,0.5,0.9,0.9,1.4,1.4L771.9,608.3z M768.4,604.6c-0.5-0.5-0.9-1-1.4-1.5l1.5-1.3c0.4,0.5,0.9,1,1.3,1.5L768.4,604.6z
					 M765.1,600.7c-0.4-0.5-0.8-1.1-1.3-1.6l1.6-1.2c0.4,0.5,0.8,1.1,1.2,1.6L765.1,600.7z M762,596.6c-0.4-0.6-0.8-1.1-1.2-1.7
					l1.7-1.1c0.4,0.6,0.8,1.1,1.1,1.7L762,596.6z M759.2,592.3c-0.4-0.6-0.7-1.2-1.1-1.7l1.7-1c0.3,0.6,0.7,1.1,1,1.7L759.2,592.3z
					 M756.6,587.9c-0.3-0.6-0.7-1.2-1-1.8l1.8-1c0.3,0.6,0.6,1.2,1,1.8L756.6,587.9z M754.2,583.4c-0.3-0.6-0.6-1.2-0.9-1.8l1.8-0.9
					c0.3,0.6,0.6,1.2,0.9,1.8L754.2,583.4z M751.9,578.9c-0.3-0.6-0.6-1.2-0.8-1.9l1.8-0.8c0.3,0.6,0.5,1.2,0.8,1.8L751.9,578.9z
					 M749.9,574.2c-0.3-0.6-0.5-1.3-0.8-1.9l1.9-0.7c0.2,0.6,0.5,1.2,0.7,1.9L749.9,574.2z M748.1,569.4c-0.2-0.6-0.5-1.3-0.7-1.9
					l1.9-0.7c0.2,0.6,0.4,1.3,0.7,1.9L748.1,569.4z M746.4,564.6c-0.2-0.7-0.4-1.3-0.6-1.9l1.9-0.6c0.2,0.6,0.4,1.3,0.6,1.9
					L746.4,564.6z M745,559.7c-0.2-0.7-0.4-1.3-0.5-2l1.9-0.5c0.2,0.6,0.3,1.3,0.5,1.9L745,559.7z M743.7,554.8
					c-0.2-0.7-0.3-1.3-0.4-2l2-0.4c0.1,0.6,0.3,1.3,0.4,2L743.7,554.8z M742.7,549.8c-0.1-0.7-0.2-1.4-0.3-2l2-0.3
					c0.1,0.6,0.2,1.3,0.3,2L742.7,549.8z M741.9,544.7c-0.1-0.7-0.1-1.4-0.2-2l2-0.2c0.1,0.6,0.1,1.3,0.2,2L741.9,544.7z
					 M741.6,539.6c0-0.3,0-0.6,0-0.9c0-0.4,0-0.8,0-1.2l2,0.1c0,0.4,0,0.7,0,1.1c0,0.3,0,0.6,0,0.9L741.6,539.6z M787.1,536
					c-0.7,0-1.4,0-2,0l0-2c0.7,0,1.3,0,2,0L787.1,536z M790.1,536l0-2c0.7,0,1.3,0,2,0l0,2C791.5,536,790.8,536,790.1,536z M782,536
					c-0.7,0-1.4,0-2,0l0.1-2c0.7,0,1.3,0,2,0L782,536z M795.2,535.9l0-2c0.7,0,1.3,0,2-0.1l0.1,2
					C796.6,535.9,795.9,535.9,795.2,535.9z M777,535.8c-0.7,0-1.4-0.1-2-0.1l0.1-2c0.7,0,1.3,0.1,2,0.1L777,535.8z M800.3,535.8
					l-0.1-2l2-0.1l0.1,2L800.3,535.8z M805.3,535.6l-0.1-2l2-0.1l0.1,2L805.3,535.6z M771.9,535.5c-0.7,0-1.4-0.1-2-0.1l0.1-2
					c0.7,0,1.3,0.1,2,0.1L771.9,535.5z M810.4,535.2l-0.1-2c0.7,0,1.3-0.1,2-0.1l0.2,2C811.7,535.1,811.1,535.2,810.4,535.2z
					 M766.8,535.2c-0.7-0.1-1.4-0.1-2-0.2l0.2-2c0.7,0.1,1.3,0.1,2,0.2L766.8,535.2z M815.4,534.8l-0.2-2c0.7-0.1,1.3-0.1,2-0.2
					l0.2,2C816.8,534.7,816.1,534.8,815.4,534.8z M743.8,534.7l-2-0.3c0.1-0.8,0.3-1.5,0.5-2.1l1.9,0.7
					C744.1,533.4,743.9,534,743.8,534.7z M761.8,534.6c-0.7-0.1-1.4-0.2-2-0.3l0.3-2c0.6,0.1,1.3,0.2,2,0.3L761.8,534.6z
					 M820.5,534.3l-0.3-2c0.7-0.1,1.3-0.2,2-0.3l0.3,2C821.9,534.1,821.2,534.2,820.5,534.3z M756.7,533.9c-0.7-0.1-1.4-0.2-2-0.4
					l0.4-2c0.6,0.1,1.3,0.2,2,0.4L756.7,533.9z M825.5,533.6l-0.3-2c0.7-0.1,1.3-0.2,2-0.3l0.3,2
					C826.9,533.4,826.2,533.5,825.5,533.6z M751.7,532.9c-0.7-0.2-1.4-0.3-2-0.5l0.6-1.9c0.6,0.2,1.2,0.3,1.9,0.5L751.7,532.9z
					 M830.5,532.8l-0.4-2c0.7-0.1,1.3-0.2,2-0.4l0.4,2C831.9,532.5,831.2,532.6,830.5,532.8z M835.5,531.8l-0.4-2
					c0.7-0.1,1.3-0.3,2-0.4l0.4,2C836.9,531.6,836.2,531.7,835.5,531.8z M746.7,531.4l-0.1-0.1c-0.4-0.2-0.8-0.2-1.1-0.1l-0.7-1.9
					c0.8-0.3,1.6-0.3,2.6,0.1l0.1,0.1L746.7,531.4z M840.5,530.8l-0.4-2c0.7-0.1,1.3-0.3,2-0.4l0.4,1.9
					C841.8,530.5,841.2,530.6,840.5,530.8z M845.4,529.6l-0.5-1.9c0.7-0.2,1.3-0.3,2-0.5l0.5,1.9
					C846.8,529.3,846.1,529.5,845.4,529.6z M850.4,528.4l-0.5-1.9c0.7-0.2,1.3-0.3,1.9-0.5l0.5,1.9C851.7,528,851,528.2,850.4,528.4
					z M855.3,527.1l-0.5-1.9c0.7-0.2,1.3-0.4,1.9-0.5l0.6,1.9C856.6,526.7,855.9,526.9,855.3,527.1z M860.1,525.7l-0.6-1.9
					c0.7-0.2,1.3-0.4,1.9-0.6l0.6,1.9C861.5,525.2,860.8,525.4,860.1,525.7z"/>
			</g>
			<g>
				<path class="st21" d="M783.2,617c-0.3-0.2-0.6-0.3-0.9-0.5l1-1.7c0.3,0.2,0.6,0.3,0.8,0.5L783.2,617z"/>
			</g>
		</g>
		<path class="st0" d="M867.4,366.9c3.9,0.1,18.6-8.3,20.7-13.9c0.7-2,0.1-7.1-0.8-9.6c-2.9-7.7-2.5-16.8-8.6-18.6
			c-2.6-0.7-13.6,0-16,0c-9.4,0-6.9,11.8-6.5,19.7C856.5,353.5,860.5,366.7,867.4,366.9z"/>
		<path class="st21" d="M857.4,330.1c0.9,0.3,3.7,0.9,3.7,0.9s1.7,6.5,3.1,8.8c1.4,2.3-0.5,11.4-4.9,12.9s-0.8,6-0.1,8
			c1,2.9-1.3,6.5,4.7,7.7c4,0.8,13.2-2.8,9.8-8.4s-8.8-12.4-5.6-19.7c3.2-7.2,0.5,8.2,9.5,12.2c9,4,11.5,5.7,11.5,5.7
			s0.6-3.6,2.8-4.8s7.7-10.3,6.3-20.7s-6.6-13.3-16.2-13.7s-6.8-4.8-12.8-5c-5.9-0.2-14.3-6-14.3-6S849.1,327.8,857.4,330.1z"/>
		<path class="st20" d="M868,373.1c-17.6,6.2-28.8,20-38.5,60.1c-9.7,40-22.1,44.1-25.4,55.2c0,0,40.5,21.8,60.8,59
			c0,0,68.9,5.5,64.7-50.5c-4.3-56,6.3-66.9,3.8-87.8c-2.5-20.9-20.2-39-32.2-40.2C891.1,367.9,881.6,368.3,868,373.1z"/>
		<ellipse transform="matrix(0.957 0.2902 -0.2902 0.957 137.062 -238.5875)" class="st0" cx="873" cy="342.8" rx="5.8" ry="6.8"/>
		<g>
			<path class="st21" d="M871.2,347.3c-0.1,0-0.3,0-0.4-0.1c-1-0.3-1.5-1.7-1.6-1.8l0.9-0.4c0.1,0.3,0.5,1.1,0.9,1.2
				c0.1,0,0.2,0,0.4-0.1c0.3-0.2,0.3-0.4,0.3-0.9c-0.1-0.6-0.2-1.5,0.7-2.5c0.6-0.7,1.3-1,1.8-1.3c0.8-0.4,1-0.5,0.8-1.4
				c-0.1-0.3-0.3-0.5-0.6-0.7c-0.9-0.5-2.7-0.1-3.3,0.1l-0.3-1c0.1,0,2.6-0.8,4.1,0c0.5,0.3,0.9,0.7,1,1.3c0.5,1.7-0.4,2.2-1.3,2.6
				c-0.5,0.2-1,0.5-1.5,1.1c-0.6,0.7-0.5,1.2-0.5,1.8c0.1,0.6,0.1,1.3-0.7,1.8C871.8,347.2,871.5,347.3,871.2,347.3z"/>
		</g>
		<path class="st0" d="M707.3,466.2c-0.1-1.5,5.3-2.9,8.3-10.2c3.1-7.2,5-3.4,11.7-5.4c6.6-2,7.9-3.4,13.3,1.7s7.4,5.4,10.9,4.4
			s36.3-11.3,50.9-17.7c14.6-6.4,36.8,23.1,9.9,31.3H737c0,0-6.4-0.9-7.9-6.2c-1.5-5.3-7.7-2.6-8.9-0.1c-1.2,2.6,0,6-2.7,5.8
			c-2.7-0.1-2.7-4.2-2.7-4.2S707.4,468.8,707.3,466.2z"/>
		<path class="st0" d="M822.7,412.1c0,0-23.1,26.1-26.4,30.6c-3.4,4.5,5.5,30.1,17,27.7c11.5-2.4,32.1-16.4,44.2-33
			C869.7,420.7,841,394.8,822.7,412.1z"/>
		<path class="st20" d="M880,379.4c5.6,3.7,10.8,10,5.9,25.6c-4.9,15.5-24,40.1-42.2,55.8c0,0-32.6-16.2-30-39.1
			c0,0,28-31.2,38.7-39.4C863,374,873.8,375.4,880,379.4z"/>
		<g>
			<path d="M850.8,435.4c-2.6,0-4.2-0.4-4.3-0.4l0.2-1c0.1,0,14.5,3.4,23-10.4l0.9,0.5C864.7,433.8,856,435.4,850.8,435.4z"/>
		</g>
		<g>
			<path d="M843.5,461.7l-0.3-0.1c-0.1-0.1-12.5-6-21.2-16.4l0.8-0.6c7.8,9.4,18.7,15,20.6,16c2.8-2.6,28.8-26.7,39.3-49.3l0.9,0.4
				c-11.2,24-39.5,49.6-39.8,49.8L843.5,461.7z"/>
		</g>
		<g>
			<path class="st21" d="M782.8,548.5c-6,0-20.8-1.4-34.6-13.9l0.7-0.7c17.5,15.8,36.4,13.6,36.6,13.5l0.1,1
				C785.5,548.4,784.5,548.5,782.8,548.5z"/>
		</g>
	</g>
	<path class="st21" d="M763,551.1h98.1v-4.5H763c-1.2,0-2.2,1-2.2,2.2l0,0C760.8,550.1,761.8,551.1,763,551.1z"/>
	<path class="st6" d="M862.5,640.6L862.5,640.6c1.6,0,3-1.1,3-2.4v-89.7h-5.9v89.7C859.5,639.5,860.9,640.6,862.5,640.6z"/>
	<g>
		<rect x="860.7" y="549.5" width="1" height="87.7"/>
	</g>
	<g>
		<path class="st21" d="M833.3,649.5h-1v-8.3c0-5.7,4.7-10.4,10.4-10.4h39.5c5.7,0,10.4,4.7,10.4,10.4v7h-1v-7
			c0-5.2-4.2-9.4-9.4-9.4h-39.5c-5.2,0-9.4,4.2-9.4,9.4V649.5z"/>
	</g>
	<g>
		<path class="st21" d="M818.2,649.5h-1v-8.3c0-5.7,4.7-10.4,10.4-10.4h69.8c5.7,0,10.4,4.7,10.4,10.4v7h-1v-7
			c0-5.2-4.2-9.4-9.4-9.4h-69.8c-5.2,0-9.4,4.2-9.4,9.4V649.5z"/>
	</g>
	<circle class="st21" cx="832.9" cy="648.1" r="4.9"/>
	<circle class="st21" cx="817.9" cy="648.1" r="4.9"/>
	<circle class="st21" cx="907.3" cy="648.1" r="4.9"/>
	<circle class="st21" cx="891.8" cy="648.1" r="4.9"/>
	<g>
		<path class="st3" d="M919.3,551.3c5,0,8.3,0,8.3,0s22.8-3.6,17.5-47.7c-0.7-5.7-4.5-10.5-9.8-12.4c-12.4-4.5-37.7-11.9-70.7-11.9
			c0,0-0.3,0-0.9,0.1c29.4,1,51.9,7.6,63.3,11.8c5.4,2,9.1,6.8,9.8,12.4C942.1,547.7,919.3,551.3,919.3,551.3z"/>
		<path class="st3" d="M846.3,501.6c7,20.9,14.1,38.6,14.1,38.6s3.4,11.1,17.2,11.1h8.3c-13.8,0-17.2-11.1-17.2-11.1
			s-7.2-17.7-14.1-38.6c-6-18,5.8-21.5,9.2-22.2c-2.4-0.1-4.9-0.1-7.4-0.1C856.3,479.3,839.3,480.7,846.3,501.6z"/>
		<g>
			<path class="st19" d="M919.3,552.3h-41.8c-14.4,0-18.1-11.7-18.1-11.8c0-0.1-7.2-17.9-14.1-38.6c-2.5-7.4-2.3-13.3,0.5-17.6
				c3.6-5.4,10.1-6,10.4-6l0.1,0c33.3,0,58.8,7.5,71.1,11.9c5.7,2.1,9.7,7.2,10.5,13.3C943.1,548,920.4,552.1,919.3,552.3
				L919.3,552.3z M856.3,480.3c-0.5,0.1-6,0.7-8.9,5.2c-2.4,3.7-2.5,9-0.3,15.8c6.9,20.7,14,38.4,14.1,38.6
				c0.2,0.5,3.4,10.4,16.3,10.4h41.6c1.3-0.3,21.6-5.2,16.7-46.6c-0.6-5.3-4.1-9.8-9.2-11.6C914.5,487.7,889.3,480.3,856.3,480.3z"
				/>
		</g>
	</g>
	<path class="st37" d="M921.9,550.8h-76.2c3.4-0.7,20.8-6.5,16.4-55.8c-2.7-29.4,15.2-74.5,20.7-86.5h78.9c0.2,1.4-0.3,3.5-3.1,6.6
		c-6.1,6.9-19.1,60.3-20.9,75.6C936,505.5,950.1,540.8,921.9,550.8z"/>
	<g>
		<path class="st21" d="M921.9,551.3h-76.3v-1h76.1c20.6-7.3,18.2-28.2,16.2-44.9c-0.7-5.8-1.3-10.9-0.8-14.8
			c1.7-14.2,14.6-68.6,21.1-75.8c2-2.2,3-4.2,3-5.7h-34.2v-1h35.1l0.1,0.4c0.3,1.9-0.8,4.3-3.2,7c-6,6.7-18.9,59.3-20.8,75.3
			c-0.4,3.7,0.1,8.7,0.8,14.5C940.9,521.5,943.5,543.7,921.9,551.3L921.9,551.3z"/>
	</g>
	<g>
		<path class="st3" d="M841,551.3c5,0,8.3,0,8.3,0s22.8-3.6,17.5-47.7c-0.7-5.7-4.5-10.5-9.8-12.4c-12.4-4.5-37.7-11.9-70.7-11.9
			c0,0-0.3,0-0.9,0.1c29.4,1,51.9,7.6,63.3,11.8c5.4,2,9.1,6.8,9.8,12.4C863.8,547.7,841,551.3,841,551.3z"/>
		<path class="st3" d="M768,501.6c7,20.9,14.1,38.6,14.1,38.6s3.4,11.1,17.2,11.1h8.3c-13.8,0-17.2-11.1-17.2-11.1
			s-7.2-17.7-14.1-38.6c-6-18,5.8-21.5,9.2-22.2c-2.4-0.1-4.9-0.1-7.4-0.1C778,479.3,761,480.7,768,501.6z"/>
		<g>
			<path class="st21" d="M841,552.3h-41.8c-14.4,0-18.1-11.7-18.1-11.8c0-0.1-7.2-17.9-14.1-38.6c-2.5-7.4-2.3-13.3,0.5-17.6
				c3.6-5.4,10.1-6,10.4-6l0.1,0c33.3,0,58.8,7.5,71.1,11.9c5.7,2.1,9.7,7.2,10.5,13.3C864.8,548,842.1,552.1,841,552.3L841,552.3z
				 M778,480.3c-0.5,0.1-6,0.7-8.9,5.2c-2.4,3.7-2.5,9-0.3,15.8c6.9,20.7,14,38.4,14.1,38.6c0.2,0.5,3.4,10.4,16.3,10.4h41.6
				c1.3-0.3,21.6-5.2,16.7-46.6c-0.6-5.3-4.1-9.8-9.2-11.6C836.2,487.7,811,480.3,778,480.3z"/>
		</g>
	</g>
	<g>
		<rect x="897.7" y="437.4" class="st21" width="52.9" height="1"/>
	</g>
	<g>
		<rect x="894.7" y="447.4" class="st21" width="52.9" height="1"/>
	</g>
	<g>
		<rect x="890.7" y="457.4" class="st21" width="52.9" height="1"/>
	</g>
</g>
<g>
	<g>
		<path class="st5" d="M494.2,521.9c21.9-20.1,50.9,32,48.1,52.5h-11C520.8,569.2,476.5,538.1,494.2,521.9z"/>
		<g>
			<path class="st4" d="M536.7,574.5c-16.2-29.7-42.5-52.1-42.7-52.3l0.6-0.8c0.3,0.2,26.6,22.7,43,52.6L536.7,574.5z"/>
		</g>
		<g>
			<path class="st4" d="M523.8,554.2c-0.8-0.1-19.1-2-24.7-4.1l0.4-0.9c5.5,2,24.3,4,24.5,4L523.8,554.2z"/>
		</g>
		<g>
			<path class="st4" d="M510.5,536.7l-0.9-0.4c2.6-6.4,3.1-16.6,3.1-16.7l1,0C513.6,520.1,513.1,530.2,510.5,536.7z"/>
		</g>
		<path d="M532.7,540.8c6.7,11.8,10.8,25.3,9.7,33.6C527.1,561,530.3,542.9,532.7,540.8z"/>
		<path class="st5" d="M550.5,507.8c19.5-8.1,13.6,40.5-3.5,66.5h-8C535,567.9,534.7,514.4,550.5,507.8z"/>
		<g>
			<path class="st4" d="M542.9,574.5l-1-0.2c3.1-14.4,11.4-60.9,11.4-61.4l1,0.2C554.2,513.5,545.9,560,542.9,574.5z"/>
		</g>
		<g>
			
				<rect x="549.8" y="548" transform="matrix(0.7091 0.7052 -0.7052 0.7091 550.7499 -226.8269)" class="st4" width="1" height="12.1"/>
		</g>
		<g>
			
				<rect x="538.1" y="535.3" transform="matrix(0.8185 0.5745 -0.5745 0.8185 406.4879 -215.2914)" class="st4" width="11.8" height="1"/>
		</g>
	</g>
	<path class="st19" d="M512,574.4v6.7c0,7.6,1.6,15.1,4.6,21.7l1.2,2.6l8,47.2h22.8l8.5-47.2l1.2-2.6c3-6.6,4.6-14.1,4.6-21.7v-6.7
		H512z"/>
	<g>
		<rect x="512.3" y="590.8" class="st21" width="37.9" height="1"/>
	</g>
	<g>
		<rect x="543.8" y="604.9" class="st21" width="13.6" height="1"/>
	</g>
	<g>
		<path class="st21" d="M526.6,653.2h-1.3l-0.1-0.4l-8-47.1l-1.2-2.6c-3-6.7-4.6-14.3-4.6-21.9v-7.2h51.4v1h-50.4v6.2
			c0,7.5,1.6,15,4.6,21.5l1.2,2.8l7.9,46.8h0.4V653.2z"/>
	</g>
</g>
<path class="st20" d="M342.3,296.3l2.6-0.3c0-0.2-2.1-21.7,5.9-30.5c2.3-2.5,5.1-3.7,8.5-3.7c4.8,0,8.6,1.6,11.3,4.5
	c5.6,6.2,4.7,12.7,4.7,12.8l1.7,4.6c0.9-6.1,1.9-12.1-4.5-19.2c-3.2-3.5-7.7-5.4-13.3-5.4c-4.3,0-7.7,1.5-10.5,4.5
	C340,273.5,342.2,295.4,342.3,296.3z"/>
<g>
	<g>
		<g>
			<g>
				<g>
					<g>
						<g>
							<g>
								<path class="st17" d="M252.4,251c-0.1,0-0.3,0-0.4-0.1l-5.1-2.1c-0.3-0.1-0.5-0.3-0.6-0.6s-0.1-0.6,0-0.9l1.6-4
									c-0.9-0.6-1.7-1.4-2.5-2.2l-3.9,1.6c-0.6,0.2-1.2,0-1.5-0.6l-2.2-5.1c-0.1-0.3-0.1-0.6,0-0.9s0.3-0.5,0.6-0.6l3.6-1.5
									c-0.1-1-0.2-1.9-0.1-2.9l-3.6-1.5c-0.3-0.1-0.5-0.3-0.6-0.6c-0.1-0.3-0.1-0.6,0-0.9l2.1-5.1c0.1-0.3,0.3-0.5,0.6-0.6
									c0.3-0.1,0.6-0.1,0.9,0l3.4,1.4c0.7-1,1.6-1.8,2.5-2.5l-1.5-3.6c-0.2-0.6,0-1.2,0.6-1.5l5.1-2.2c0.3-0.1,0.6-0.1,0.9,0
									c0.3,0.1,0.5,0.3,0.6,0.6l1.6,3.9c0.6,0,1.3,0,1.9,0l1.7-4.2c0.2-0.6,0.9-0.9,1.5-0.6l5.1,2.1c0.3,0.1,0.5,0.3,0.6,0.6
									c0.1,0.3,0.1,0.6,0,0.9l-1.6,4c1,0.7,1.8,1.6,2.5,2.5l3.6-1.5c0.3-0.1,0.6-0.1,0.9,0c0.3,0.1,0.5,0.3,0.6,0.6l2.2,5.1
									c0.2,0.6,0,1.2-0.6,1.5l-3.9,1.6c0.1,0.9,0,1.8-0.1,2.6l4,1.6c0.6,0.2,0.9,0.9,0.6,1.5l-2.1,5.1c-0.1,0.3-0.3,0.5-0.6,0.6
									c-0.3,0.1-0.6,0.1-0.9,0L266,241c-0.4,0.5-0.9,1-1.4,1.4l1.6,3.9c0.2,0.6,0,1.2-0.6,1.5l-5.1,2.2c-0.3,0.1-0.6,0.1-0.9,0
									s-0.5-0.3-0.6-0.6l-1.5-3.6c-0.7,0.1-1.5,0.2-2.2,0.1l-1.8,4.5C253.3,250.8,252.9,251,252.4,251z M248.8,247.2l3.1,1.2
									l1.7-4.2c0.2-0.5,0.6-0.7,1.1-0.7c1.1,0.1,2.2,0,3.3-0.2c0.5-0.1,1.1,0.2,1.3,0.7l1.4,3.4l3-1.3l-1.5-3.6
									c-0.2-0.5-0.1-1,0.3-1.3c0.8-0.6,1.5-1.4,2.1-2.2c0.3-0.4,0.9-0.6,1.3-0.4l3.9,1.6l1.2-3.1l-3.8-1.5
									c-0.5-0.2-0.8-0.7-0.7-1.3c0.2-1.2,0.3-2.4,0.1-3.7c-0.1-0.5,0.2-1,0.7-1.2l3.6-1.5l-1.3-3l-3.4,1.4c-0.5,0.2-1.1,0-1.4-0.4
									c-0.9-1.3-1.9-2.4-3.2-3.2c-0.4-0.3-0.6-0.9-0.4-1.4l1.5-3.8l-3.1-1.2l-1.6,3.9c-0.2,0.5-0.7,0.8-1.2,0.7
									c-1-0.1-2.1-0.1-3.1,0c-0.5,0.1-1-0.2-1.2-0.7l-1.5-3.6l-3,1.3l1.4,3.4c0.2,0.5,0,1.1-0.4,1.4c-1.3,0.9-2.4,1.9-3.2,3.2
									c-0.3,0.5-0.9,0.6-1.4,0.4l-3.2-1.3l-1.2,3.1l3.3,1.3c0.5,0.2,0.8,0.7,0.7,1.2c-0.2,1.3-0.1,2.6,0.1,3.9
									c0.1,0.5-0.2,1.1-0.7,1.3l-3.4,1.4l1.3,3l3.6-1.5c0.5-0.2,1-0.1,1.3,0.3c0.9,1.1,2,2.1,3.2,2.8c0.5,0.3,0.7,0.9,0.5,1.4
									L248.8,247.2z M255.6,238.4c-0.8,0-1.6-0.2-2.3-0.5c-1.5-0.6-2.7-1.8-3.4-3.3c-1.3-3.2,0.2-6.8,3.3-8.1
									c3.2-1.3,6.8,0.2,8.1,3.3c0.6,1.5,0.7,3.2,0,4.8c-0.6,1.5-1.8,2.7-3.3,3.4l0,0C257.2,238.3,256.4,238.4,255.6,238.4z
									 M255.6,228.2c-0.5,0-1,0.1-1.5,0.3c-2,0.8-3,3.2-2.1,5.2c0.4,1,1.2,1.7,2.2,2.1c1,0.4,2.1,0.4,3,0l0,0
									c1-0.4,1.7-1.2,2.1-2.2c0.4-1,0.4-2.1,0-3C258.6,229.1,257.1,228.2,255.6,228.2z"/>
							</g>
						</g>
					</g>
				</g>
			</g>
		</g>
	</g>
	<g>
		<path class="st17" d="M348.5,356.9h-82.4c-6.2,0-11.2-5-11.2-11.2v-87.4c0-0.5,0.4-0.9,0.9-0.9c0.5,0,0.9,0.4,0.9,0.9v87.4
			c0,5.2,4.2,9.3,9.3,9.3h82.4c0.5,0,0.9,0.4,0.9,0.9S349,356.9,348.5,356.9z"/>
	</g>
</g>
<g>
	<path class="st17" d="M369.1,296.8c0.2,2,0.8,5.3,2.8,6.3c0.1,0,0.2,0.1,0.3,0.1c4.8,2.1,9.3-2.1,9.2-8.1c-0.1-4.4-2.7-7.5-6.8-7.9
		c-0.4,0-0.9,0-1.3,0.1c-1.3,0.3-2.5,1.2-3.1,2.5C369.3,291.6,369,295.5,369.1,296.8z"/>
	<path class="st26" d="M369.1,296.8c0.2,2,0.8,5.3,2.8,6.3c0.1,0,0.2,0.1,0.3,0.1c-2.2-5.3-2.5-11.2,1.1-16
		c-1.3,0.3-2.5,1.2-3.1,2.5C369.3,291.6,369,295.5,369.1,296.8z"/>
</g>
<g>
	<g>
		<path class="st15" d="M373.4,646.1c-7.1-3.1-4.4-6.6-5.9-12.5c0,0,0,0,0,0c-5-0.6-16.8-0.8-27.1-0.5c1.5,8.4-6.3,24.2-1.9,28.5
			c4.3,4.3,7,4.7,17.4,4c10.4-0.7,24,0.6,34.3,0.6c10.3-0.1,13.5-8.2,13.5-8.2C403.6,650,381.8,649.7,373.4,646.1z"/>
		<path class="st20" d="M402.5,658.3c-7.3,5.2-16.4,2.8-24.5,2.3c-9.9-0.6-20.9-1.1-30.3,0.4c-3.4,0.5-6.7-0.1-10.2-1.1
			c0.2,0.7,0.5,1.2,1,1.7c4.3,4.3,7,4.7,17.4,4c10.4-0.7,24,0.6,34.3,0.6c9.7-0.1,13.1-7.2,13.5-8.1
			C403.3,658.3,402.8,658,402.5,658.3z"/>
		<g>
			<path class="st21" d="M389.2,661.9c-1.5,0-3.2-0.1-5-0.3c-13.4-1.7-26.5-1.7-36.8,0l-0.2-1c10.4-1.7,23.5-1.7,37.1,0
				c12.4,1.5,18.5-3.3,18.6-3.3l0.6,0.8C403.4,658.2,398.8,661.9,389.2,661.9z"/>
		</g>
		<g>
			<path class="st21" d="M388.9,654.9l-1-0.1c0.4-4.9,3.7-5.6,3.8-5.6l0.2,1l-0.1-0.5l0.1,0.5C391.8,650.2,389.3,650.8,388.9,654.9z
				"/>
		</g>
		<g>
			<path class="st21" d="M383.7,654.1l-1-0.1c0.4-4.9,3.7-5.6,3.8-5.6l0.2,1l-0.1-0.5l0.1,0.5C386.6,649.4,384.1,650,383.7,654.1z"
				/>
		</g>
		<g>
			<path class="st21" d="M378.5,653.3l-1-0.1c0.4-4.9,3.7-5.6,3.8-5.6l0.2,1l-0.1-0.5l0.1,0.5C381.4,648.6,378.9,649.2,378.5,653.3z
				"/>
		</g>
		<g>
			<path class="st21" d="M373.5,652.1l-1-0.1c0.4-4.9,3.7-5.6,3.8-5.6l0.2,1l-0.1-0.5l0.1,0.5C376.4,647.5,373.8,648,373.5,652.1z"
				/>
		</g>
	</g>
	<polygon class="st0" points="365.4,568.7 385.2,568.7 387.5,542.9 362.7,542.9 	"/>
	<g>
		<path class="st15" d="M329.9,646.1c-7.1-3.1-4.4-6.6-5.9-12.5c0,0,0,0,0,0c-5-0.6-16.8-0.8-27.1-0.5c1.5,8.4-6.3,24.2-1.9,28.5
			c4.3,4.3,7,4.7,17.4,4c10.4-0.7,24,0.6,34.3,0.6c10.3-0.1,13.5-8.2,13.5-8.2C360.1,650,338.2,649.7,329.9,646.1z"/>
		<path class="st20" d="M358.9,658.3c-7.3,5.2-16.4,2.8-24.5,2.3c-9.9-0.6-20.9-1.1-30.3,0.4c-3.4,0.5-6.7-0.1-10.2-1.1
			c0.2,0.7,0.5,1.2,1,1.7c4.3,4.3,7,4.7,17.4,4c10.4-0.7,24,0.6,34.3,0.6c9.7-0.1,13.1-7.2,13.5-8.1
			C359.8,658.3,359.3,658,358.9,658.3z"/>
		<g>
			<path class="st21" d="M345.7,661.9c-1.5,0-3.2-0.1-5-0.3c-13.4-1.7-26.5-1.7-36.8,0l-0.2-1c10.4-1.7,23.5-1.7,37.1,0
				c12.5,1.5,18.5-3.3,18.6-3.3l0.6,0.8C359.9,658.2,355.2,661.9,345.7,661.9z"/>
		</g>
		<g>
			<path class="st21" d="M345.4,654.9l-1-0.1c0.4-4.9,3.7-5.6,3.8-5.6l0.2,1l-0.1-0.5l0.1,0.5C348.3,650.2,345.7,650.8,345.4,654.9z
				"/>
		</g>
		<g>
			<path class="st21" d="M340.2,654.1l-1-0.1c0.4-4.9,3.7-5.6,3.8-5.6l0.2,1l-0.1-0.5l0.1,0.5C343.1,649.4,340.5,650,340.2,654.1z"
				/>
		</g>
		<g>
			<path class="st21" d="M335,653.3l-1-0.1c0.4-4.9,3.7-5.6,3.8-5.6l0.2,1l-0.1-0.5l0.1,0.5C337.9,648.6,335.3,649.2,335,653.3z"/>
		</g>
		<g>
			<path class="st21" d="M329.9,652.1l-1-0.1c0.4-4.9,3.7-5.6,3.8-5.6l0.2,1l-0.1-0.5l0.1,0.5C332.8,647.5,330.3,648,329.9,652.1z"
				/>
		</g>
	</g>
	<g>
		<path class="st21" d="M409.5,379.7c0,0-2.3,8.5-5.9,8.4c-3.5-0.1,0.3-4.8,0.3-4.8s-2.8,3.1-3.8,2.1s-0.6-3.8,1.1-5.6
			c1.7-1.8,3.8-6.7,4.9-6C407.1,374.6,410,375.2,409.5,379.7z"/>
		<path class="st0" d="M350.2,395.1c0.9,2.6,1.9,5,3,7.1c12.5-7.5,30.7-26.1,38.1-30c0,0,0.2-10-2.4-9.9
			c-5.7,0.2-40.2,14.8-41.3,15.3C346.6,380.8,347.5,387.7,350.2,395.1z"/>
		<path class="st0" d="M388.5,362.4c0,0,3.8-1.7,12.7,2.3c8.9,3.9,12.1,11.6,11.7,19.3c-0.4,7.8-2.4,4.5-3,2.7
			c-0.6-1.8-1.4-11.9-4-12.1c0,0-2.2,0.9-0.8,3.9c1.4,3,3,5.5,2.2,7.7c-0.8,2.2-1.9,0.2-2.9-1c-1-1.1-2.9-4.5-4.3-5.7
			c-1.4-1.2-6.6-3.1-8-6.5c0,0-1.8,0-3.1,0.9C387.6,374.6,388.5,362.4,388.5,362.4z"/>
	</g>
	<g>
		<path class="st21" d="M366.1,554.5c-1.5-3.8,25.3-9.4,26-9.9c2.3-33.2,2-68.8,2-89.1c0.1-29.8-55.2-21.8-60.4-9.7
			c-6.3,14.6-3,77.1,0.5,107.6c4.4,38.5,1.5,84.6,1.5,84.6s12.7,7.3,47-0.2c0,0,7.6-73.1,7.9-76.8
			C383.8,563.2,367.4,558,366.1,554.5z"/>
	</g>
	<g>
		<path d="M360.4,477.1c1.5,5.7-7.3,14-9.4,18.8c-3.3,7.3-1.6,44.7-2.4,52.1c-0.8,8-12,31.1-12.3,31.5c-1.3-11-0.4-16.9-2.1-31.7
			c-2.1-18.7-5.5-48.4-5.6-72C331.1,476.8,353.5,479.2,360.4,477.1z"/>
	</g>
	<polygon class="st0" points="302.7,568.7 333.6,568.7 336.3,542.9 306.9,542.9 	"/>
	<g>
		<path class="st21" d="M288.5,443c-7.8,14.6-8.8,74.3-8.6,104.8c0.3,38.5,7.4,91.2,7.4,91.2s14,6.6,39.3-0.9c0,0,6.8-55.9,8.9-66.1
			c0.6-2.9,1.1-5.9,1.7-8.9c-5.8,1-30-0.1-30-6.6c0-6.5,32.3-9.4,32.7-9.6c4.9-33.6,7.2-68.6,9.5-89.4
			C352.5,427.7,294.9,430.9,288.5,443z"/>
	</g>
	<path d="M344.1,317.5c-7,0.6-19.7,1.4-27.6,13.2c-7.9,11.8-36.3,131-36.3,131s59.7,19.9,117.3-1.2c0,0-14.2-101.4-22.3-120.8
		S353.6,316.7,344.1,317.5z"/>
	<g>
		<path class="st0" d="M367.8,308l-7.9,18.8c0,0-13,2.2-18.8-8.8l6.5-16.9L367.8,308z"/>
		<path class="st21" d="M365.7,313l-2.6,6.1c-13.2-2-11.3-13-11.2-13C365.2,312.7,365.7,313,365.7,313z"/>
		<path class="st0" d="M368.6,316.7c-6,0.4-17.5-6.8-20.3-12.1c-1-1.9-1.1-7.1-0.5-9.6c1.9-8,3.3-15.3,9.2-17.9
			c2.5-1.1,9.2-2.2,11.6-1.9c7.9,1,9.1,8.5,9.7,16.4C379,300.5,379.1,315.9,368.6,316.7z"/>
		<path class="st14" d="M376.7,282.4c-3.1-7.6-3.6,0.3-9.4-2.1c-6.3-2.7-12.8-0.4-12.8,4.6c0,9.7-3.3,7.5-3.3,7.5l-4.8,12.8
			c0,0-6.8-8.7-6.8-23.3c0-10.4,11.5-11.2,19.9-15.2C369.4,262.1,381.5,269.5,376.7,282.4z"/>
		<g>
			<path class="st21" d="M371.5,302.3l-0.3-1c1.1-0.4,2.9-1.3,3.1-1.9c0,0,0-0.1-0.1-0.3c-2.9-3.2-2.4-7.7-2.4-7.9l0-0.1l0.1-0.1
				c0,0,1.9-2.7,5.5-1.9l-0.3,1c-2.5-0.6-4,0.9-4.3,1.3c-0.1,0.7-0.2,4.4,2.1,7c0.4,0.4,0.4,0.9,0.3,1.2
				C374.9,301.1,372.1,302.1,371.5,302.3z"/>
		</g>
		<circle class="st0" cx="346.7" cy="295.8" r="5.6"/>
		<g>
			<path class="st21" d="M346.1,299.9c-0.9,0-1.8-0.8-1.9-0.9l0.7-0.7c0.2,0.2,0.8,0.7,1.3,0.6c0.1,0,0.2-0.1,0.3-0.2
				c0.2-0.2,0.2-0.2-0.1-0.6c-0.3-0.5-0.7-1.2-0.2-2.3c0.3-0.8,0.8-1.2,1.2-1.6c0.6-0.6,0.7-0.6,0.2-1.1c-0.8-0.9-3,0.3-3.7,0.8
				l-0.6-0.8c0.1-0.1,3.4-2.3,5-0.6c1.1,1.3,0.3,2-0.3,2.6c-0.4,0.3-0.8,0.7-1,1.2c-0.3,0.6-0.1,1,0.2,1.4c0.2,0.4,0.6,1,0,1.8
				C347,299.7,346.6,299.9,346.1,299.9C346.2,299.9,346.2,299.9,346.1,299.9z"/>
		</g>
		<g>
			<path class="st21" d="M373.7,308.5c-0.2,0-4.7-0.1-8.5-2.2l0.5-0.9c3.6,1.9,8,2,8.1,2L373.7,308.5z"/>
		</g>
		<g>
			<path class="st21" d="M362.5,291.9l-0.5-0.9c5.2-3.2,7.1-0.7,7.2-0.6l-0.8,0.6C368.3,291,366.9,289.2,362.5,291.9z"/>
		</g>
		<circle class="st21" cx="365.2" cy="293.8" r="1.4"/>
		<circle class="st21" cx="374.8" cy="293.1" r="1.4"/>
	</g>
	<g>
		<path class="st21" d="M428.8,389.7c0,0.2-0.2,0.4-0.4,0.4h-69.5c-0.4,0-0.8-0.4-0.8-0.8v-1.9h70.7V389.7z"/>
		<g>
			<path class="st21" d="M367.2,386.5v0.8h-2.5v-1.1h2.2C367.1,386.3,367.2,386.4,367.2,386.5z"/>
			<path class="st21" d="M370.1,386.5v0.8h-2.5v-1.1h2.2C370,386.3,370.1,386.4,370.1,386.5z"/>
			<path class="st21" d="M373,386.5v0.8h-2.5v-1.1h2.2C372.8,386.3,373,386.4,373,386.5z"/>
			<path class="st21" d="M384.9,386.5v0.8h-2.5v-1.1h2.2C384.8,386.3,384.9,386.4,384.9,386.5z"/>
			<path class="st21" d="M387.8,386.5v0.8h-2.5v-1.1h2.2C387.7,386.3,387.8,386.4,387.8,386.5z"/>
			<path class="st21" d="M421.6,386.5v0.8h-2.5v-1.1h2.2C421.5,386.3,421.6,386.4,421.6,386.5z"/>
			<path class="st21" d="M424.5,386.5v0.8H422v-1.1h2.2C424.4,386.3,424.5,386.4,424.5,386.5z"/>
			<path class="st21" d="M382,386.5v0.8h-8.5v-1.1h8.3C381.9,386.3,382,386.4,382,386.5z"/>
			<path class="st21" d="M433.8,386.5v0.8h-8.5v-1.1h8.3C433.7,386.3,433.8,386.4,433.8,386.5z"/>
			<path class="st21" d="M418.5,386.5v0.8h-29.6v-1.1h29.3C418.3,386.3,418.5,386.4,418.5,386.5z"/>
		</g>
		<g>
			
				<linearGradient id="SVGID_11_" gradientUnits="userSpaceOnUse" x1="1772.8555" y1="386.8164" x2="1779.751" y2="386.8164" gradientTransform="matrix(-1 0 0 1 2212.6211 0)">
				<stop  offset="0" style="stop-color:#AACEFF"/>
				<stop  offset="1" style="stop-color:#DBE9FF"/>
			</linearGradient>
			<path class="st28" d="M433.1,386.3h6c0.3,0,0.6,0.3,0.6,0.6v0.5h-6.9v-0.8C432.9,386.4,433,386.3,433.1,386.3z"/>
			
				<linearGradient id="SVGID_12_" gradientUnits="userSpaceOnUse" x1="1764.5498" y1="386.8164" x2="1771.4453" y2="386.8164" gradientTransform="matrix(-1 0 0 1 2212.6211 0)">
				<stop  offset="0" style="stop-color:#AACEFF"/>
				<stop  offset="1" style="stop-color:#DBE9FF"/>
			</linearGradient>
			<path class="st29" d="M441.4,386.3h6c0.3,0,0.6,0.3,0.6,0.6v0.5h-6.9v-0.8C441.2,386.4,441.3,386.3,441.4,386.3z"/>
			
				<linearGradient id="SVGID_13_" gradientUnits="userSpaceOnUse" x1="1756.2441" y1="386.8164" x2="1763.1396" y2="386.8164" gradientTransform="matrix(-1 0 0 1 2212.6211 0)">
				<stop  offset="0" style="stop-color:#AACEFF"/>
				<stop  offset="1" style="stop-color:#DBE9FF"/>
			</linearGradient>
			<path class="st30" d="M449.8,386.3h6c0.3,0,0.6,0.3,0.6,0.6v0.5h-6.9v-0.8C449.5,386.4,449.6,386.3,449.8,386.3z"/>
			
				<linearGradient id="SVGID_14_" gradientUnits="userSpaceOnUse" x1="1747.9385" y1="386.8164" x2="1754.834" y2="386.8164" gradientTransform="matrix(-1 0 0 1 2212.6211 0)">
				<stop  offset="0" style="stop-color:#AACEFF"/>
				<stop  offset="1" style="stop-color:#DBE9FF"/>
			</linearGradient>
			<path class="st31" d="M458.1,386.3h6c0.3,0,0.6,0.3,0.6,0.6v0.5h-6.9v-0.8C457.8,386.4,457.9,386.3,458.1,386.3z"/>
			
				<linearGradient id="SVGID_15_" gradientUnits="userSpaceOnUse" x1="1741.0254" y1="386.8164" x2="1745.0547" y2="386.8164" gradientTransform="matrix(-1 0 0 1 2212.6211 0)">
				<stop  offset="0" style="stop-color:#AACEFF"/>
				<stop  offset="1" style="stop-color:#DBE9FF"/>
			</linearGradient>
			<path class="st32" d="M467.8,386.3h3.1c0.3,0,0.6,0.3,0.6,0.6v0.5h-4v-0.8C467.6,386.4,467.7,386.3,467.8,386.3z"/>
			
				<linearGradient id="SVGID_16_" gradientUnits="userSpaceOnUse" x1="1736.1279" y1="386.8164" x2="1740.1582" y2="386.8164" gradientTransform="matrix(-1 0 0 1 2212.6211 0)">
				<stop  offset="0" style="stop-color:#AACEFF"/>
				<stop  offset="1" style="stop-color:#DBE9FF"/>
			</linearGradient>
			<path class="st33" d="M472.7,386.3h3.1c0.3,0,0.6,0.3,0.6,0.6v0.5h-4v-0.8C472.5,386.4,472.6,386.3,472.7,386.3z"/>
			
				<linearGradient id="SVGID_17_" gradientUnits="userSpaceOnUse" x1="1731.5186" y1="386.8164" x2="1735.5488" y2="386.8164" gradientTransform="matrix(-1 0 0 1 2212.6211 0)">
				<stop  offset="0" style="stop-color:#AACEFF"/>
				<stop  offset="1" style="stop-color:#DBE9FF"/>
			</linearGradient>
			<path class="st34" d="M477.3,386.3h3.1c0.3,0,0.6,0.3,0.6,0.6v0.5h-4v-0.8C477.1,386.4,477.2,386.3,477.3,386.3z"/>
		</g>
		<path class="st21" d="M423.1,335.5c0.6-2.2,2.7-3.9,4.9-3.9l-16,58.2c0,0-2.7-0.9-2-3.9C410.6,383.4,420,347.3,423.1,335.5z"/>
		<path class="st3" d="M428.5,331.6h74c1,0,1.8,1,1.5,2l-13.6,53.8h-77.8l13.8-54.1C426.6,332.3,427.5,331.6,428.5,331.6z"/>
		<g>
			<path class="st21" d="M494.7,372.2l-1-0.3l9.8-38.6c0.1-0.3,0-0.7-0.2-0.9c-0.2-0.3-0.5-0.4-0.8-0.4h-61v-1h61
				c0.7,0,1.3,0.3,1.7,0.8c0.4,0.5,0.5,1.2,0.4,1.8L494.7,372.2z"/>
		</g>
		<path class="st3" d="M490.6,389.7c0,0.2-0.2,0.4-0.4,0.4h-76.4c-0.4,0-0.8-0.4-0.8-0.8v-1.9h77.6V389.7z"/>
		<g>
			<rect x="426.6" y="386.8" class="st21" width="63.5" height="1"/>
		</g>
		<g>
			<polygon class="st21" points="412.9,387.9 358.1,387.9 358.1,386.8 412.1,386.8 422.7,345.6 423.7,345.8 			"/>
		</g>
	</g>
	<g>
		<path class="st0" d="M399.5,388.9c0,0,9.2-1.7,10.8,4.1c1.8,6.3,12.8,13.4,12.8,13.4s-5.4,4.3-15-1.6c-9.6-5.9-15.2-7-15.2-7
			L399.5,388.9z"/>
		<path class="st0" d="M423.1,406.4c0,0,11.1-6.7,12.6-11.6c0.3-1.1,0-2.3-1-1.9c-4,1.6-12.3,9.7-12.3,9.7s6.7-8.5,5.8-9.5
			c-0.5-0.6-3.7-2.5-6.3-4c-1.9-1.1-3.7,0.1-5.2,1.7c-1.8,1.9-3.3,3.2-3.9,3.3c-1.3,0.3-3.2-1.6-3.2-1.6l5.1,10.7L423.1,406.4z"/>
		<path class="st21" d="M422.5,389.5l-7,8C415.5,397.5,420.8,393,422.5,389.5z"/>
		<path class="st21" d="M425.7,391.2l-7.2,10.1C418.5,401.3,424.3,394.8,425.7,391.2z"/>
		<path class="st0" d="M350.6,377.1c9.7,2.1,41.4,10.4,49.6,11.7l-4.7,9.6c0,0-43.9,3.3-45.1,3.1C344,393.6,348.1,380.5,350.6,377.1
			z"/>
	</g>
	<g>
		<path d="M309.5,347.6c-3.2,14.1-7.7,46.1,33.8,59.7c4.7,1.5,22,7.4,22,7.4s9-14.6,5-34.6l-25.9-12.7c0,0,2.4-18.2,3-24.5
			C348.5,329.1,318.4,308.1,309.5,347.6z"/>
		<g>
			<path class="st9" d="M365,415.2c-0.2-0.1-17.3-5.9-22-7.4c-29.5-9.7-41-29.9-34.1-60.3c1.4-6.1,3.3-11.1,5.8-14.8l0.9,0.6
				c-2.4,3.7-4.3,8.5-5.7,14.5c-6.7,29.7,4.5,49.6,33.4,59.1c4.7,1.5,21.8,7.4,22,7.4L365,415.2z"/>
		</g>
		<g>
			<path class="st9" d="M361.9,376.5l-18.3-8.8l0-0.4c0-0.2,2.4-18.3,3-24.5c0-0.2,0-0.3,0-0.5l1,0c0,0.2,0,0.4,0,0.6
				c-0.5,5.8-2.6,21.5-2.9,24.2l17.6,8.5L361.9,376.5z"/>
		</g>
	</g>
</g>
<g>
	<path class="st20" d="M342.3,292.3l2.6-0.3c0-0.2-2.1-17.7,5.9-26.5c2.3-2.5,5.1-3.7,8.5-3.7c2.2,0,4.2,0.3,6,0.8l0.8-2.5
		c-2-0.6-4.3-0.9-6.7-0.9c-4.2,0-7.7,1.5-10.5,4.5C340,273.5,342.2,291.4,342.3,292.3z"/>
	<path class="st20" d="M358.1,314c3.9,0,7.8-0.7,8.1-0.8l-0.4-2.1c-0.1,0-8.8,1.7-12.6,0.1c-2.7-1.1-5.2-8.2-6.2-12.5l-2.1,0.5
		c0.3,1.2,2.9,12.1,7.4,14C353.9,313.8,356,314,358.1,314z"/>
	<g>
		<path class="st17" d="M350.9,299.5c-0.2,2-0.8,5.3-2.8,6.3c-0.1,0-0.2,0.1-0.3,0.1c-4.8,2.1-9.3-2.1-9.2-8.1
			c0.1-4.4,2.7-7.5,6.8-7.9c0.4,0,0.9,0,1.3,0.1c1.3,0.3,2.5,1.2,3.1,2.5C350.7,294.4,351,298.2,350.9,299.5z"/>
		<path class="st3" d="M350.9,299.5c-0.2,2-0.8,5.3-2.8,6.3c-0.1,0-0.2,0.1-0.3,0.1c2.2-5.3,2.5-11.2-1.1-16
			c1.3,0.3,2.5,1.2,3.1,2.5C350.7,294.4,351,298.2,350.9,299.5z"/>
		<path class="st24" d="M342.9,300.8c-0.8-1.6-1-3.4-0.5-5.1c0.4-1.5-1.9-2.1-2.3-0.6c-0.6,2.4-0.4,4.8,0.7,6.9
			C341.5,303.4,343.6,302.2,342.9,300.8z"/>
	</g>
	<circle cx="364.9" cy="311.3" r="3.9"/>
</g>
<g>
	<path class="st20" d="M859.6,359c-3.9,0-7.8-0.7-8.1-0.8l0.4-2.1c0.1,0,8.8,1.7,12.6,0.1c2.7-1.1,5.2-8.2,6.2-12.5l2.1,0.5
		c-0.3,1.2-2.9,12.1-7.4,14C863.8,358.8,861.7,359,859.6,359z"/>
	<circle cx="852.9" cy="356.4" r="3.9"/>
	<g>
		<ellipse class="st3" cx="871.8" cy="343.5" rx="7.2" ry="8.2"/>
		<ellipse class="st17" cx="873.8" cy="343.5" rx="7.2" ry="8.2"/>
		<path class="st24" d="M876.3,346.5c0.8-1.6,1-3.4,0.5-5.1c-0.4-1.5,1.9-2.1,2.3-0.6c0.6,2.4,0.4,4.8-0.7,6.9
			C877.7,349,875.6,347.8,876.3,346.5z"/>
	</g>
	<g>
		<path class="st20" d="M874.6,336.6c-0.1,0-0.2,0-0.3-0.1c-0.5-0.2-0.8-0.8-0.6-1.3c3.5-9.5,2.6-16.9,2.6-17
			c-0.1-0.5,0.3-1,0.9-1.1c0.5-0.1,1,0.3,1.1,0.9c0,0.3,1,8-2.7,17.9C875.4,336.3,875,336.6,874.6,336.6z"/>
	</g>
</g>
<g>
	<g>
		<path d="M836.5,298.2c-0.3,0-25.3-1.9-33.5-17.9c-5.3,1-10.8,1.6-16.4,1.6c-36.2,0-65.7-22.4-65.7-50s29.5-50,65.7-50
			c36.2,0,65.7,22.4,65.7,50c0,16.9-11.1,32.5-29.6,41.8c2.2,10,6.4,22.1,13.9,23.5L836.5,298.2z M803.6,279.2l0.2,0.3
			c5.9,12.1,22,16,29.2,17.2c-6-4-9.4-14.4-11.3-23.2l-0.1-0.4l0.3-0.2c18.4-9.1,29.4-24.5,29.4-41.1c0-27-29-49-64.7-49
			c-35.7,0-64.7,22-64.7,49s29,49,64.7,49c5.6,0,11.1-0.5,16.5-1.6L803.6,279.2z"/>
	</g>
	<ellipse class="st19" cx="778.2" cy="231.6" rx="65.2" ry="49.5"/>
	<path class="st19" d="M811.7,260.5c0,0,3,34.3,16.3,37c0,0-28.4-1.9-34.4-21C787.6,257.4,811.7,260.5,811.7,260.5z"/>
	<g>
		<path d="M811.8,294.1c-12.5-4.5-16.5-12.2-17.3-14.1c-22.9,4.3-41.4-2.2-41.5-2.2l0.3-0.9c0.2,0.1,18.6,6.5,41.4,2.1l0.4-0.1
			l0.1,0.4c0,0.1,3.3,9.1,16.8,13.9L811.8,294.1z"/>
	</g>
	<g>
		<path d="M719.6,210.8l-0.9-0.5c0.2-0.3,18.2-32.4,70-28.1l-0.1,1C737.5,178.9,719.8,210.5,719.6,210.8z"/>
	</g>
	<g>
		<path d="M826.9,265.1l-0.6-0.8c14.5-11,15.9-26.2,16-26.4l1,0.1C843.3,238.1,841.8,253.8,826.9,265.1z"/>
	</g>
	<g>
		<rect x="735.7" y="206.9" width="34.2" height="1"/>
	</g>
	<g>
		<rect x="778.6" y="206.9" width="16.4" height="1"/>
	</g>
	<g>
		<rect x="801.9" y="206.9" width="19.7" height="1"/>
	</g>
	<g>
		<rect x="724.4" y="217.4" width="33.3" height="1"/>
	</g>
	<g>
		<rect x="765.7" y="217.4" width="63.7" height="1"/>
	</g>
	<g>
		<rect x="724.4" y="228.2" width="58.2" height="1"/>
	</g>
	<g>
		<rect x="795.7" y="227.2" width="39" height="1"/>
	</g>
	<g>
		<rect x="725.2" y="238.5" width="50.8" height="1"/>
	</g>
	<g>
		<rect x="784.1" y="238.5" width="19.5" height="1"/>
	</g>
	<g>
		<rect x="812" y="238.5" width="22.7" height="1"/>
	</g>
	<g>
		<rect x="741.1" y="247.6" width="47.6" height="1"/>
	</g>
	<g>
		<rect x="798.8" y="247.6" width="29.2" height="1"/>
	</g>
</g>
<g>
	<g>
		<path d="M428.1,297.5l-0.1-0.9c7-1.4,10.9-12.7,13-22.1c-17.4-8.7-27.7-23.3-27.7-39.2c0-25.8,27.6-46.9,61.5-46.9
			c33.9,0,61.5,21,61.5,46.9s-27.6,46.9-61.5,46.9c-5.2,0-10.3-0.5-15.3-1.5C451.8,295.7,428.3,297.5,428.1,297.5z M474.8,189.4
			c-33.4,0-60.6,20.6-60.6,45.9c0,15.6,10.3,30,27.5,38.5l0.3,0.2l-0.1,0.4c-1.8,8.3-5,18.1-10.6,21.8c6.8-1.1,21.8-4.8,27.4-16.1
			l0.2-0.3l0.4,0.1c5,1,10.3,1.5,15.5,1.5c33.4,0,60.6-20.6,60.6-45.9S508.2,189.4,474.8,189.4z"/>
	</g>
	<ellipse class="st19" cx="471.5" cy="231.3" rx="61" ry="46.4"/>
	<path class="st19" d="M440.1,258.3c0,0-2.8,32.1-15.3,34.6c0,0,26.6-1.8,32.3-19.6S440.1,258.3,440.1,258.3z"/>
	<g>
		<path d="M439.9,289.9l-0.3-0.9c12.7-4.5,15.7-12.9,15.8-13l0.1-0.4l0.4,0.1c21.4,4.1,38.6-1.9,38.8-2l0.3,0.9
			c-0.2,0.1-17.4,6.1-38.9,2.1C455.4,278.4,451.7,285.7,439.9,289.9z"/>
	</g>
	<g>
		<path d="M526.3,211.8c-0.2-0.3-16.8-29.8-64.6-25.9l-0.1-0.9c48.5-4,65.4,26,65.5,26.3L526.3,211.8z"/>
	</g>
	<g>
		<path d="M425.8,262.7c-13.9-10.6-15.3-25.2-15.3-25.4l0.9-0.1c0,0.1,1.4,14.4,14.9,24.7L425.8,262.7z"/>
	</g>
	<g>
		<rect x="479.2" y="208.1" width="32" height="0.9"/>
	</g>
	<g>
		<rect x="455.8" y="208.1" width="15.3" height="0.9"/>
	</g>
	<g>
		<rect x="430.8" y="208.1" width="18.4" height="0.9"/>
	</g>
	<g>
		<rect x="490.6" y="218" width="31.2" height="0.9"/>
	</g>
	<g>
		<rect x="423.5" y="218" width="59.6" height="0.9"/>
	</g>
	<g>
		<rect x="467.3" y="228.1" width="54.5" height="0.9"/>
	</g>
	<g>
		<rect x="418.5" y="227.2" width="36.5" height="0.9"/>
	</g>
	<g>
		<rect x="473.4" y="237.8" width="47.6" height="0.9"/>
	</g>
	<g>
		<rect x="447.7" y="237.8" width="18.3" height="0.9"/>
	</g>
	<g>
		<rect x="418.5" y="237.8" width="21.3" height="0.9"/>
	</g>
	<g>
		<rect x="461.7" y="246.3" width="44.6" height="0.9"/>
	</g>
	<g>
		<rect x="424.8" y="246.3" width="27.4" height="0.9"/>
	</g>
</g>
</svg>
