<svg xmlns="http://www.w3.org/2000/svg" width="200" height="57" viewBox="0 0 200 57" fill="none">
<path d="M42.96 10.6823C42.92 10.4023 42.68 10.2423 42.48 10.2423C42.28 10.2423 38.32 10.1623 38.32 10.1623C38.32 10.1623 35 6.96231 34.68 6.60231C34.36 6.28231 33.72 6.36231 33.48 6.44231C33.48 6.44231 32.84 6.64231 31.8 6.96231C31.64 6.40231 31.36 5.72231 31 5.00231C29.84 2.76231 28.08 1.56231 26 1.56231C25.84 1.56231 25.72 1.56231 25.56 1.60231C25.48 1.52231 25.44 1.44231 25.36 1.40231C24.44 0.44231 23.28 -0.03769 21.88 0.00230997C19.2 0.08231 16.52 2.04231 14.32 5.48231C12.8 7.92231 11.64 10.9623 11.28 13.3223C8.2 14.2823 6.04 14.9623 5.96 14.9623C4.4 15.4423 4.36 15.4823 4.16 16.9623C4.08 18.0823 0 49.6423 0 49.6423L34.24 55.5623L49.08 51.8823C49.04 51.8823 43 10.9623 42.96 10.6823ZM30.08 7.52231C29.28 7.76231 28.4 8.04231 27.44 8.36231C27.44 7.00231 27.24 5.08231 26.64 3.48231C28.68 3.80231 29.68 6.12231 30.08 7.52231ZM25.64 8.88231C23.84 9.44231 21.88 10.0423 19.92 10.6423C20.48 8.52231 21.52 6.44231 22.8 5.04231C23.28 4.52231 23.96 3.96231 24.72 3.64231C25.52 5.20231 25.68 7.40231 25.64 8.88231ZM21.96 1.80231C22.6 1.80231 23.12 1.92231 23.56 2.24231C22.84 2.60231 22.12 3.16231 21.48 3.88231C19.76 5.72231 18.44 8.56231 17.92 11.3223C16.28 11.8423 14.68 12.3223 13.24 12.7623C14.2 8.40231 17.84 1.92231 21.96 1.80231Z" fill="#95BF47"/>
<path d="M42.4822 10.2423C42.2822 10.2423 38.3222 10.1623 38.3222 10.1623C38.3222 10.1623 35.0022 6.96234 34.6822 6.60234C34.5622 6.48234 34.4022 6.40234 34.2422 6.40234V55.5623L49.0822 51.8823C49.0822 51.8823 43.0422 10.9623 43.0022 10.6823C42.9222 10.4023 42.6822 10.2423 42.4822 10.2423Z" fill="#5E8E3E"/>
<path d="M26.0011 17.8821L24.2811 24.3221C24.2811 24.3221 22.3611 23.4421 20.0811 23.6021C16.7211 23.8021 16.7211 25.9221 16.7211 26.4421C16.9211 29.3221 24.4811 29.9621 24.9211 36.7221C25.2411 42.0421 22.1211 45.6821 17.5611 45.9621C12.1211 46.2421 9.12109 43.0421 9.12109 43.0421L10.2811 38.1221C10.2811 38.1221 13.3211 40.4021 15.7211 40.2421C17.2811 40.1621 17.8811 38.8421 17.8011 37.9621C17.5611 34.2021 11.4011 34.4421 11.0011 28.2421C10.6811 23.0421 14.0811 17.8021 21.6011 17.3221C24.5211 17.1221 26.0011 17.8821 26.0011 17.8821Z" fill="white"/>
<path d="M69.1589 31.6023C67.4389 30.6823 66.5589 29.8823 66.5589 28.8023C66.5589 27.4423 67.7989 26.5623 69.7189 26.5623C71.9589 26.5623 73.9589 27.4823 73.9589 27.4823L75.5189 22.6823C75.5189 22.6823 74.0789 21.5623 69.8389 21.5623C63.9189 21.5623 59.7989 24.9623 59.7989 29.7223C59.7989 32.4423 61.7189 34.4823 64.2789 35.9623C66.3589 37.1223 67.0789 37.9623 67.0789 39.2023C67.0789 40.4823 66.0389 41.5223 64.1189 41.5223C61.2789 41.5223 58.5589 40.0423 58.5589 40.0423L56.8789 44.8423C56.8789 44.8423 59.3589 46.5223 63.5589 46.5223C69.6389 46.5223 74.0389 43.5223 74.0389 38.1223C73.9989 35.2023 71.7989 33.1223 69.1589 31.6023Z" fill="black"/>
<path d="M93.3984 21.4821C90.3984 21.4821 88.0384 22.9221 86.2384 25.0821L86.1584 25.0421L88.7584 11.4421H81.9984L75.3984 46.0821H82.1584L84.3984 34.2421C85.2784 29.7621 87.5984 27.0021 89.7584 27.0021C91.2784 27.0021 91.8784 28.0421 91.8784 29.5221C91.8784 30.4421 91.7984 31.6021 91.5984 32.5221L89.0384 46.0821H95.7984L98.4384 32.0821C98.7184 30.6021 98.9184 28.8421 98.9184 27.6421C98.9584 23.8021 96.9584 21.4821 93.3984 21.4821Z" fill="black"/>
<path d="M114.279 21.4822C106.119 21.4822 100.719 28.8422 100.719 37.0422C100.719 42.2822 103.959 46.5222 110.039 46.5222C118.039 46.5222 123.439 39.3622 123.439 30.9622C123.479 26.1222 120.639 21.4822 114.279 21.4822ZM110.959 41.3622C108.639 41.3622 107.679 39.4022 107.679 36.9222C107.679 33.0422 109.679 26.7222 113.359 26.7222C115.759 26.7222 116.559 28.8022 116.559 30.8022C116.559 34.9622 114.519 41.3622 110.959 41.3622Z" fill="black"/>
<path d="M140.799 21.4822C136.239 21.4822 133.639 25.5222 133.639 25.5222H133.559L133.959 21.8822H127.959C127.679 24.3222 127.119 28.0822 126.599 30.8822L121.879 55.6822H128.639L130.519 45.6422H130.679C130.679 45.6422 132.079 46.5222 134.639 46.5222C142.599 46.5222 147.799 38.3622 147.799 30.1222C147.799 25.5622 145.759 21.4822 140.799 21.4822ZM134.319 41.4422C132.559 41.4422 131.519 40.4422 131.519 40.4422L132.639 34.1222C133.439 29.8822 135.639 27.0822 137.999 27.0822C140.079 27.0822 140.719 29.0022 140.719 30.8022C140.719 35.2022 138.119 41.4422 134.319 41.4422Z" fill="black"/>
<path d="M157.478 11.7622C155.318 11.7622 153.598 13.4822 153.598 15.6822C153.598 17.6822 154.878 19.0822 156.798 19.0822H156.878C158.998 19.0822 160.798 17.6422 160.838 15.1622C160.838 13.2022 159.518 11.7622 157.478 11.7622Z" fill="black"/>
<path d="M148 46.0422H154.76L159.36 22.0422H152.56L148 46.0422Z" fill="black"/>
<path d="M176.598 22.0022H171.878L172.118 20.8822C172.518 18.5622 173.878 16.5222 176.158 16.5222C177.358 16.5222 178.318 16.8822 178.318 16.8822L179.638 11.5622C179.638 11.5622 178.478 10.9622 175.958 10.9622C173.558 10.9622 171.158 11.6422 169.318 13.2022C166.998 15.1622 165.918 18.0022 165.398 20.8822L165.198 22.0022H162.038L161.038 27.1222H164.198L160.598 46.0822H167.358L170.958 27.1222H175.638L176.598 22.0022Z" fill="black"/>
<path d="M192.92 22.0422C192.92 22.0422 188.68 32.7222 186.8 38.5622H186.72C186.6 36.6822 185.04 22.0422 185.04 22.0422H177.92L182 44.0822C182.08 44.5622 182.04 44.8822 181.84 45.2022C181.04 46.7222 179.72 48.2022 178.16 49.2822C176.88 50.2022 175.44 50.8022 174.32 51.2022L176.2 56.9622C177.56 56.6822 180.44 55.5222 182.84 53.2822C185.92 50.4022 188.8 45.9222 191.72 39.8422L200 22.0422H192.92Z" fill="black"/>
</svg>