<?xml version="1.0" encoding="UTF-8"?>
<svg id="Layer_2" data-name="Layer 2" xmlns="http://www.w3.org/2000/svg" viewBox="0 0 666.67 377.54">
  <defs>
    <style>
      .cls-1, .cls-2 {
        fill: #fff;
      }

      .cls-3 {
        fill: #eace0a;
      }

      .cls-2 {
        font-family: NotoSansSymbols-Bold, 'Noto Sans Symbols';
        font-size: 111.13px;
        font-variation-settings: 'wght' 700;
        font-weight: 700;
      }
    </style>
  </defs>
  <g id="Layer_1-2" data-name="Layer 1">
    <rect class="cls-3" width="666.67" height="377.54"/>
    <g>
      <text class="cls-2" transform="translate(255.48 293.18)"><tspan x="0" y="0">Okani</tspan></text>
      <path class="cls-1" d="M110.88,64.3c2.63.61,5.34,1.02,7.89,1.95,17.47,6.35,22.95,25.78,12.01,40.48l17.9,31.6c.68.42,11.85-2.9,13.88-3.26,14.7-2.61,29.71-1.31,43.54,4.19l24.06-35.22c.49-1.71-1.15-3.09-1.68-4.61-5.08-14.62,2.31-28.41,16.9-33.41,2.43-.83,4.77-1.17,7.25-1.71h5.71c1.85.55,3.71.67,5.6,1.18,8.51,2.31,16.79,9.21,19.29,17.68.45,1.52.36,3.06,1.01,4.4v4.74c-.79.89-.34,2.29-.63,3.48-2.7,10.96-13.64,19.89-25.03,20.67-2.05.14-8.02-.51-9.27.38l-22.95,33.09c-.18.72,2.1,3.27,2.79,3.99,3.74,3.92,7.23,6.44,10.68,11.05,36.12,48.25,9.06,119.67-52.06,128.39l-9.31.99h-10.53l-2.64-.43-.02-78.14c.32-1.15,14.73.03,16.95-.23.68-.08,1.64-1.92,3.71-.89v56.86c22.46-1.62,40.22-18.13,46.83-38.68,9-27.95-3.48-60.2-30.51-73.19-38.77-18.62-82.02,9.76-83.47,50.7l-20.63-.86c.84-14.66,5.57-28.79,13.69-41.06,4.71-7.11,10.96-12.53,16.93-18.6l-18.44-32.42c-1.15-1.06-6.93-1.14-8.78-1.51-8.93-1.79-17.12-7.68-20.42-16.14-.84-2.16-1.3-4.35-1.86-6.57.13-1.81-.19-3.83,0-5.6,1.3-12.29,13.22-22.13,25.46-23.26h6.14ZM106.39,81.21c-6.87.93-11.95,9.05-6.91,14.75,3.7,4.18,11.76,4.64,15.94,1.01,7.39-6.41.08-16.98-9.03-15.75ZM248.86,96.86c7.51,5.75,20.56.48,17.16-9.29-2.28-6.55-10.87-8.36-16.42-4.51-4.82,3.34-5.53,10.13-.74,13.8Z"/>
    </g>
  </g>
</svg>