<?xml version="1.0" encoding="UTF-8"?>
<svg id="Layer_2" data-name="Layer 2" xmlns="http://www.w3.org/2000/svg" viewBox="0 0 525.99 507.08">
  <defs>
    <style>
      .cls-1 {
        fill: #fff;
      }

      .cls-2 {
        fill: #eace0a;
      }
    </style>
  </defs>
  <g id="Layer_1-2" data-name="Layer 1">
    <g>
      <rect class="cls-2" width="525.99" height="507.08"/>
      <path class="cls-1" d="M123.68,27.39c5.17,1.2,10.5,2.01,15.51,3.83,34.35,12.48,45.12,50.7,23.62,79.6l35.2,62.13c1.34.82,23.3-5.71,27.29-6.42,28.9-5.14,58.41-2.57,85.61,8.24l47.31-69.25c.96-3.37-2.26-6.07-3.3-9.07-9.98-28.75,4.54-55.86,33.23-65.68,4.78-1.64,9.38-2.31,14.26-3.37h11.22c3.63,1.08,7.29,1.31,11.01,2.32,16.74,4.54,33.01,18.11,37.93,34.77.88,2.98.71,6.02,1.98,8.65v9.32c-1.54,1.75-.66,4.5-1.24,6.83-5.3,21.54-26.81,39.11-49.21,40.63-4.02.27-15.77-1-18.22.75l-45.12,65.06c-.35,1.41,4.12,6.43,5.48,7.85,7.36,7.72,14.22,12.66,21.01,21.73,71.03,94.86,17.81,235.31-102.37,252.44l-18.3,1.94h-20.71l-5.18-.84-.05-153.64c.63-2.27,28.96.06,33.32-.46,1.35-.16,3.23-3.78,7.29-1.75v111.81c44.17-3.18,79.08-35.66,92.09-76.05,17.69-54.95-6.83-118.36-60-143.91-76.23-36.62-161.27,19.19-164.12,99.69l-40.57-1.7c1.65-28.82,10.94-56.62,26.92-80.73,9.26-13.99,21.56-24.64,33.29-36.57l-36.25-63.75c-2.26-2.09-13.63-2.24-17.26-2.97-17.55-3.52-33.66-15.11-40.15-31.75-1.65-4.24-2.55-8.55-3.66-12.93.27-3.56-.37-7.52,0-11.01,2.55-24.17,26-43.51,50.05-45.74h12.08ZM114.84,60.65c-13.51,1.82-23.51,17.79-13.59,28.99,7.27,8.22,23.12,9.11,31.35,1.98,14.53-12.6.17-33.39-17.75-30.97ZM394.98,91.42c14.76,11.3,40.42.95,33.74-18.27-4.48-12.88-21.38-16.43-32.28-8.86-9.47,6.57-10.88,19.92-1.45,27.13Z"/>
    </g>
  </g>
</svg>